<?xml version="1.0" encoding="UTF-8"?>
<!DOCTYPE svg PUBLIC "-//W3C//DTD SVG 1.1//EN" "http://www.w3.org/Graphics/SVG/1.1/DTD/svg11.dtd">
<!-- Creator: CorelDRAW -->
<svg xmlns="http://www.w3.org/2000/svg" xml:space="preserve" width="255.595mm" height="72.768mm" version="1.1" style="shape-rendering:geometricPrecision; text-rendering:geometricPrecision; image-rendering:optimizeQuality; fill-rule:evenodd; clip-rule:evenodd"
viewBox="0 0 25652.22 7303.19"
 xmlns:xlink="http://www.w3.org/1999/xlink"
 xmlns:xodm="http://www.corel.com/coreldraw/odm/2003">
 <defs>
  <style type="text/css">
   <![CDATA[
    .str0 {stroke:#852468;stroke-width:100.36;stroke-linecap:round;stroke-miterlimit:22.9256}
    .fil2 {fill:none}
    .fil0 {fill:#852468;fill-rule:nonzero}
    .fil1 {fill:#852468;fill-rule:nonzero}
   ]]>
  </style>
 </defs>
 <g id="Слой_x0020_1">
  <metadata id="CorelCorpID_0Corel-Layer"/>
  <path class="fil0" d="M1548.41 3210.45c0,0 -21.57,14.72 -23.67,17.87 -3.16,3.43 -10.54,9.71 -17.37,7.83 -6.83,-1.58 -28.95,-15.68 -31.05,-11.9 -3.16,3.75 -3.68,7.51 0.52,14.4 3.69,6.57 -3.68,14.42 -4.21,27.88 -0.53,13.79 -4.74,26.63 0.52,38.54 4.22,10.96 7.38,13.78 7.38,24.75 0,11.28 3.68,13.78 -3.69,23.81 -8.42,9.4 -15.26,6.88 -29.47,12.54 -13.69,5.64 -16.31,11.59 -20.52,12.21 -3.69,0.93 -15.27,-7.2 -23.69,-14.41 -8.93,-6.58 -7.37,-3.45 -11.05,-12.54 -3.69,-8.45 -4.74,-5.95 -7.36,-10.95 -2.12,-5.65 -1.07,-7.53 -1.07,-14.42 0,-6.57 -6.83,-8.77 -7.88,-13.78 -0.52,-5.33 2.62,-3.45 -2.12,-14.42 -4.72,-10.65 -11.05,-31.63 -21.05,-38.21 -8.93,-6.27 -13.67,-13.47 -23.14,-13.47 -8.95,0 -23.16,2.82 -28.95,8.45 -5.26,5.64 -11.05,14.72 -12.11,24.75 -0.52,10.35 1.6,30.08 -6.83,38.53 -8.95,9.09 -46.83,20.37 -52.62,22.57 -6.32,2.18 -22.63,12.2 -22.11,29.75 0,17.23 -4.22,26.96 -12.09,33.53 -8.43,6.57 -15.79,16.6 -9.47,23.48 6.83,6.89 28.94,27.57 28.94,27.57 0,0 5.79,15.04 1.58,23.81 -4.22,8.77 -25.26,12.85 -34.74,16.3 -8.95,3.75 -11.05,-0.31 -14.74,16.6 -3.14,16.6 -8.94,26.95 -17.87,36.97 -8.95,9.71 -22.12,12.2 -22.64,26 -1.05,13.47 -3.69,20.04 5.78,23.49 9.47,3.75 22.12,5.33 36.85,10.96 14.2,5.32 26.84,13.79 27.88,21.62 1.05,7.21 -4.21,11.9 3.17,20.67 7.36,8.46 19.47,9.08 18.95,16.29 0,7.22 -7.38,5.64 -14.74,6.26 -7.38,0.95 -9.47,5.33 -4.74,10.66 5.27,5.02 12.63,5.64 7.89,11.59 -5.26,5.63 -7.36,3.75 -2.62,12.84 5.78,8.77 18.41,20.05 23.14,20.37 5.26,0.3 -1.05,-15.36 10.52,-13.16 11.07,2.5 14.74,8.76 23.16,14.08 8.43,5.35 28.42,10.98 34.21,8.47 6.31,-2.5 9.47,-6.27 18.43,1.25 8.93,7.2 43.67,69.85 52.09,79.26 8.43,9.39 5.79,8.77 10.01,16.3 4.22,7.51 54.21,96.18 58.94,104.93 4.2,8.78 10,19.75 7.36,21.01 -3.16,1.57 -16.83,3.12 -25.78,0.94 -8.95,-2.2 -19.99,-15.98 -27.36,-17.24 -6.84,-1.56 -10.54,-5.63 -10,2.82 1.05,8.47 0,17.23 10.53,21 10,4.07 27.88,8.77 45.25,12.2 16.31,3.45 45.79,3.45 54.2,7.85 8.42,4.38 9.47,9.71 3.16,12.53 -5.78,2.51 -22.1,-1.24 -22.1,-1.24 0,0 -14.73,-9.73 -18.95,-4.71 -3.68,5.33 -5.26,10.65 3.17,16.6 8.4,5.95 23.67,11.28 27.88,15.36 4.22,4.07 14.73,8.45 19.99,13.16 5.27,4.7 6.83,4.06 9.47,3.44 2.63,-0.62 5.79,-1.88 10.53,1.25 4.74,3.44 12.64,9.39 15.27,10.97 2.64,1.25 10,5.95 6.3,-1.58 -3.66,-7.83 -6.3,-7.2 -5.78,-10.95 1.04,-4.07 0,-7.85 4.22,-5.65 3.68,1.88 0.52,0 3.68,1.88 3.15,1.58 3.69,0 6.31,-1.24 1.58,-1.58 -14.21,-8.78 4.74,-2.2 18.95,6.57 7.36,5.95 14.73,5.95 6.83,0 10.01,-1.88 10.01,-1.88 0,0 17.35,-0.63 18.95,-0.63 1.04,0 0.52,2.51 4.22,0.32 3.66,-2.2 1.57,-0.62 8.93,-3.44 7.38,-2.51 4.74,-2.83 12.11,-1.88 7.36,0.92 9.47,-5.33 13.15,-8.47 3.16,-3.75 9.47,-6.88 6.32,-9.4 -2.64,-2.18 -7.9,-4.38 -10.53,-1.56 -2.11,2.5 -2.64,2.82 -4.21,3.13 -1.07,0.32 -4.22,0.32 -4.22,0.32 0,0 -2.12,2.5 -3.69,2.18 -1.57,0 -2.62,-1.56 -4.74,-2.81 -2.62,-0.94 -4.21,-2.2 -7.88,-1.89 -3.16,0.62 -4.22,3.14 -7.38,4.07 -3.16,1.24 -19.48,-1.88 -19.48,-4.39 -0.52,-2.5 -2.62,-7.83 0.53,-7.2 3.16,0.62 4.21,1.88 6.84,2.18 2.63,0.62 4.22,1.9 7.37,-1.56 3.68,-3.76 11.05,-11.27 12.64,-12.55 1.58,-0.92 6.31,-6.57 8.41,-4.68 3.16,1.88 3.68,4.68 4.74,5.95 0.52,1.24 2.12,3.43 4.22,0.3 1.57,-3.13 4.74,-10.96 7.9,-13.48 3.15,-2.8 7.89,-3.12 8.95,0.95 1.04,4.07 -1.06,6.89 0,7.52 1.04,0.31 5.78,-0.32 4.72,-4.07 -1.04,-3.44 -2.62,-11.59 -2.62,-11.59 0,0 -5.26,-3.75 2.1,0 7.9,3.75 12.11,8.45 12.11,8.45 2.62,1.26 5.26,2.82 8.41,4.4 0,2.2 0,4.38 0.54,6.57 0,0 3.14,-6.89 3.14,-10.03 0,-3.44 -0.52,-7.52 -0.52,-7.52 0,0 7.38,-1.88 7.38,-0.31 1.05,1.25 4.2,0.31 5.79,-1.24 2.1,-1.9 3.14,-7.53 4.74,-3.15 1.57,4.07 1.04,7.85 2.62,8.78 1.58,0.94 4.74,2.5 4.74,-4.07 0,-5.95 2.64,-13.16 5.78,-13.16 2.12,-0.62 4.74,3.13 7.91,4.7 3.14,1.88 13.69,-4.07 17.88,-6.26 3.68,-2.19 5.8,-2.51 9.47,-1.56 3.68,0.92 3.16,-1.58 7.38,-1.58 3.66,-0.3 9.47,-1.88 16.31,0.94 7.36,2.81 13.16,5.95 15.79,8.76 2.64,3.44 9.47,3.76 12.64,6.27 2.62,2.5 6.31,6.57 8.41,8.45 2.64,1.58 5.26,3.14 6.85,2.2 2.1,-0.62 1.57,-4.7 6.3,-2.82 4.74,1.89 5.79,5.32 5.27,9.72 -0.53,3.75 1.57,7.21 2.64,8.77 1.04,1.88 2.1,6.88 3.66,8.78 2.12,1.56 5.79,0.3 7.39,0.3 1.04,0 -2.12,3.45 0.52,4.07 2.1,0.62 6.83,-1.25 6.83,-1.25 0,0 -1.58,8.46 3.16,9.08 4.74,0.32 4.22,-10.03 10.53,-9.08 5.78,0.63 8.42,7.21 8.42,9.71 0,2.2 4.74,5.65 4.74,5.65 0,0 5.79,4.07 5.79,6.25 0.52,2.2 -0.52,3.77 -2.64,3.45 -1.58,0 -2.1,1.25 -1.58,2.52 1.05,1.56 11.05,3.12 12.09,4.68 1.07,1.27 5.27,2.2 7.38,0 2.1,-2.5 3.67,-4.68 -0.52,-9.07 -3.68,-4.38 -4.74,-5.33 -5.26,-8.45 0,-2.83 1.04,-6.27 2.1,-6.27 1.58,0.94 2.1,2.5 7.36,5.32 5.28,2.83 7.38,4.4 9.47,2.83 2.12,-1.58 2.12,-0.63 4.74,-4.07 2.64,-2.83 3.17,-6.9 6.85,-8.15 4.74,-1.56 7.89,-4.39 12.09,-1.56 4.22,2.8 10.01,5 11.05,5.95 0.52,1.56 -2.1,0 5.26,2.18 6.85,1.9 6.85,0.62 10.53,4.07 4.22,3.77 7.9,3.77 9.47,5.33 2.12,1.24 4.22,1.88 5.79,2.82 2.11,1.25 3.68,0.62 5.28,-0.62 1.57,-1.25 3.66,-3.75 8.41,-0.95 5.78,2.83 7.9,6.27 6.84,9.73 -0.54,2.82 1.58,3.75 4.74,4.7 2.1,0.3 6.83,1.25 7.89,4.07 1.04,2.5 4.22,7.51 4.74,8.77 1.04,0.93 2.1,1.25 0.52,3.75 -1.04,2.51 2.12,3.45 1.05,7.83 -1.58,4.4 0,10.35 0,10.35 -1.05,2.18 -2.63,4.38 -3.67,6.25 0,0 2.1,2.2 0,3.45 -2.64,0.94 -6.33,0.94 -7.38,2.82 -1.58,2.51 -2.62,4.07 -3.15,5.63 -1.06,0.95 -0.54,2.52 2.63,0.32 2.64,-2.5 5.78,-5.95 8.42,-5.32 2.62,0.62 2.1,0.62 4.22,3.44 2.62,3.45 2.62,5.33 2.62,6.9 0,1.24 -2.62,5.32 -4.22,5.94 -2.1,0.93 -4.74,0.93 -6.83,2.19 -2.11,1.24 -4.21,3.44 -3.68,5.32 0,2.52 -4.22,3.15 0,2.52 4.74,-1.26 6.31,-1.89 8.42,-4.07 2.63,-1.89 8.95,-3.44 11.05,-2.82 1.58,0.3 3.69,4.38 2.1,8.45 -1.04,4.07 -7.36,35.73 -12.09,45.43 -4.22,9.72 -10,21.92 -16.83,29.77 -6.85,7.51 -11.59,12.53 -15.79,15.66 -3.69,3.13 -10.01,4.38 -10.01,9.72 0,5.95 3.15,9.71 8.41,13.78 5.26,4.39 12.65,6.9 14.21,10.34 1.58,3.76 -1.57,0.62 7.38,7.52 9.46,7.53 8.41,6.27 12.1,6.89 4.21,0.93 6.3,0.63 6.3,0.63 2.12,0.3 4.22,0.3 6.85,0.62 0,0 7.89,2.2 10.53,3.13 3.14,0.94 5.78,0.94 6.31,3.76 1.04,3.13 5.78,5.63 5.78,5.63 9.47,1.25 18.95,1.88 28.95,2.51 0,0 4.21,-2.19 2.62,0.32 -0.52,2.5 -36.31,0.3 -38.93,-0.32 -3.16,-0.63 -6.85,-5.63 -8.43,-5.95 -1.04,0 -1.04,-1.88 -5.78,1.57 -4.22,2.83 -10.01,4.39 -13.69,2.51 -4.22,-2.2 -4.22,-3.45 -6.31,-3.75 -2.12,0 -5.78,3.12 -7.38,3.44 -1.04,0.31 -5.78,0 -5.78,-3.14 0,-2.81 -1.05,-7.83 -1.05,-7.83 0,0 -9.47,-8.77 -7.9,-3.44 1.06,5.02 4.74,7.2 1.59,8.14 -3.16,1.25 -12.11,-1.24 -13.16,-2.82 -2.1,-1.25 -8.43,-3.44 -8.43,-4.7 0,-1.25 -3.14,-5.01 -3.14,-6.25 0,-1.25 -4.74,-8.78 -7.91,-5.95 -3.68,2.5 -5.78,4.38 -8.95,3.43 -3.14,-0.63 -4.74,2.82 -7.36,2.52 -2.1,0 -4.22,-4.07 -5.78,-4.4 -1.6,-0.31 -8.43,-1.56 -10.01,0.32 -2.11,2.18 -14.21,2.18 -18.95,2.18 -5.26,-0.62 -2.64,-4.69 -8.95,-5.95 -6.83,-1.56 -5.26,3.77 -11.04,4.4 -4.74,0.3 -4.22,-4.7 -8.43,-5.33 -4.2,-0.94 -10.53,-0.32 -12.09,-1.88 -0.53,-1.24 -6.83,-14.1 -8.95,-12.22 -3.15,1.88 -8.95,7.53 -9.47,9.4 -0.52,1.88 -7.89,-5.02 -8.41,-0.32 -1.6,4.4 1.04,8.77 -2.12,9.4 -3.14,0.94 -11.05,2.82 -15.79,-0.31 -3.68,-3.14 -6.3,-8.47 -6.3,-8.47 0,0 -3.17,3.15 -5.79,6.9 -1.59,3.75 -15.27,13.15 -16.85,15.97 -0.52,2.83 -1.58,12.22 -1.05,18.49 1.05,6.59 1.58,10.65 0.53,11.59 -1.58,0.63 -5.79,-2.82 -7.37,-3.75 -1.59,-1.24 -6.32,-4.4 -6.84,-1.88 0,2.51 -0.53,7.51 -3.15,7.21 -2.64,-0.32 -4.74,-0.63 -4.74,-0.63 0,0 -3.16,-3.76 -4.74,-2.82 -1.6,0.63 -4.74,2.82 -4.74,5.01 0,2.2 3.14,2.2 5.26,3.44 1.58,1.25 5.79,4.07 1.05,5.03 -4.22,1.24 -4.22,4.07 -1.58,6.25 1.05,1.58 0.52,1.25 3.15,2.52 3.16,0.93 7.9,1.25 12.11,7.21 5.26,5.95 10,14.4 10,17.84 0,3.45 -0.52,1.58 4.74,5.95 4.74,4.71 2.1,11.9 3.14,13.48 1.6,1.88 8.43,5.01 9.48,3.13 1.59,-1.88 4.74,-5.01 10,-1.25 6.32,3.45 11.59,4.38 14.21,7.53 2.64,3.12 6.83,5.63 5.26,7.82 -3.14,1.58 -10.52,-1.88 -11.57,-1.24 -1.58,0.3 -3.68,-5.33 -7.38,-3.75 -4.2,1.24 -2.1,2.81 -4.74,3.12 -3.14,0 -8.41,-2.82 -9.45,-3.76 -1.6,-0.93 -4.74,-4.05 -7.91,-1.88 -3.16,1.88 -4.21,4.7 -6.83,6.27 -2.11,1.88 -9.47,-0.32 -12.11,-1.25 -2.1,-1.25 -3.68,0.31 -10.52,-5.32 -7.37,-5.65 -13.17,-14.1 -16.31,-17.23 -3.69,-3.45 -9.47,-10.97 -13.17,-9.4 -3.14,1.56 -3.14,6.58 -7.36,6.58 -4.22,0 -10.01,-1.25 -11.05,-2.51 -1.6,-0.94 -3.16,-5.02 -5.8,-4.4 -3.15,1.25 -5.27,4.4 -10.01,3.77 -4.2,-0.94 -11.04,-2.52 -14.19,-6.27 -3.69,-3.45 -8.43,-6.89 -10,-5.33 -1.6,1.25 -5.81,6.27 -5.27,9.4 1.05,3.45 -1.59,4.7 -1.59,4.7 0,0 -2.62,-3.44 -4.22,-0.32 -1.04,3.15 0.52,7.21 1.06,10.03 1.58,2.2 2.63,3.15 2.1,5.65 -1.04,2.5 -4.74,4.7 1.58,10.33 6.33,6.27 -1.58,4.07 8.43,8.77 9.47,4.71 8.42,4.71 22.63,7.83 14.2,3.15 21.58,5.03 30.53,10.98 8.4,5.95 13.14,8.77 14.73,15.02 0.52,6.27 2.1,15.36 2.1,17.55 0,1.88 1.58,8.77 1.58,8.77 0,0 4.21,-3.75 6.32,0.32 2.62,4.38 2.1,0.93 4.72,7.2 3.17,5.95 7.39,10.66 5.29,15.66 -0.54,5.33 -2.64,10.35 1.57,13.18 2.63,3.12 6.31,3.12 8.95,7.82 2.1,5.01 5.79,15.98 10.53,21.31 4.21,5.01 13.67,5.33 16.31,10.65 2.64,5.01 2.1,8.77 3.68,12.85 1.05,4.39 4.74,5.95 4.74,9.4 0.53,3.13 -2.11,1.88 -2.64,5.01 -1.04,2.5 0,3.12 2.64,7.52 2.1,3.75 6.31,8.15 4.74,12.85 -1.06,4.69 -0.54,7.21 -3.16,8.76 -2.64,1.26 -4.22,3.77 -0.52,8.15 4.22,4.07 2.1,1.25 10.52,6.27 8.95,5.33 14.21,11.27 20.52,18.8 5.79,7.83 9.47,15.36 15.79,16.6 7.38,1.25 6.31,-4.7 10.53,-5.95 4.74,-1.57 10.52,-2.52 14.21,3.43 3.16,5.65 2.64,9.73 1.58,11.6 -2.1,1.25 1.06,3.44 3.16,4.7 3.16,1.25 8.42,3.75 12.09,10.97 2.64,7.51 0,10.03 6.85,17.85 6.83,8.45 8.43,11.28 13.69,14.1 5.26,2.82 7.88,2.18 10.52,1.56 3.15,-0.62 5.27,-4.38 14.21,-1.88 8.41,2.5 15.79,3.45 17.88,7.53 1.58,4.07 -1.57,6.27 5.27,8.15 6.3,1.88 10.52,1.24 10,-0.95 -0.52,-1.88 -1.05,-4.7 4.74,-3.75 6.31,1.56 10.53,0.63 11.57,4.39 1.6,3.76 12.64,4.4 12.64,4.4 0,0 -3.16,-1.58 2.1,2.18 5.27,3.77 7.91,3.77 9.47,6.89 1.6,3.13 6.31,5.02 8.43,7.53 2.62,2.5 6.31,5.95 7.36,10.65 0,4.7 -2.1,8.15 -5.26,7.21 -2.62,-0.63 -1.58,1.57 -5.26,-2.83 -3.67,-4.07 -15.27,-17.85 -15.79,-16.28 -0.52,1.56 19.47,22.86 19.47,24.75 0,2.51 -14.21,79.26 -14.73,84.26 -0.52,5.32 -4.74,12.22 -1.58,20.05 3.15,8.15 3.15,8.15 8.41,16.6 5.8,8.47 13.17,20.05 14.73,28.52 1.07,8.45 2.12,14.08 4.22,23.17 3.16,9.08 5.26,16.6 5.26,18.18 0.53,1.88 -4.21,-0.94 -1.57,2.18 2.62,3.77 9.47,-11.9 37.88,-20.67 28.95,-9.4 26.86,-11.9 54.74,-10.65 28.42,1.88 62.64,2.2 78.41,9.09 16.32,6.88 27.36,9.4 40.53,19.73 13.17,10.35 35.78,23.49 45.26,38.23 10.52,14.72 11.04,18.48 16.31,31 5.26,12.55 9.47,13.79 23.16,31.32 13.68,17.24 16.31,25.07 29.47,40.1 12.63,15.35 19.48,22.87 26.32,31.02 6.83,8.45 12.64,10.96 21.05,13.16 8.42,1.57 53.16,6.89 53.16,6.89 -27.9,-211.79 -50,-423.25 -65.27,-635.03 112.1,-15.02 223.66,-31 335.76,-48.22 93.15,70.17 185.78,140.34 278.4,210.21 51.59,72.05 102.63,144.41 153.68,216.46 0,0 163.68,-23.81 189.46,-17.85 25.78,5.95 137.35,26.95 140.51,26.95 3.15,0 51.05,-27.25 62.63,-26.32 11.57,1.24 23.69,33.52 26.85,42.29 3.67,8.45 20.52,8.45 24.72,14.4 4.74,6.27 60,102.45 60,102.45 0,0 27.9,-14.09 28.94,-12.85 1.05,1.56 3.69,85.53 3.17,87.41 -0.53,1.88 -8.43,7.53 -6.85,17.85 1.59,10.35 8.42,50.13 8.42,50.13 15.27,1.88 31.05,3.44 47.38,5 0,0 32.62,119.37 37.35,126.26 5.78,7.21 31.57,9.73 41.05,8.15 9.47,-1.25 58.94,0.32 86.84,5.02 27.88,5.01 24.2,4.06 27.88,5.01 3.69,0.32 3.69,-3.13 6.31,2.2 3.68,5.63 7.9,12.2 8.95,21.61 0.52,9.39 3.68,17.54 -0.52,20.05 -3.69,2.51 6.3,9.72 11.04,11.89 4.22,2.52 11.59,16.93 21.59,20.05 10.01,3.15 27.36,8.47 32.1,-0.62 5.27,-9.4 -1.57,-31.96 -1.57,-38.53 0.52,-6.57 0,-13.78 7.88,-17.55 7.38,-3.75 18.43,-10.65 23.16,-15.02 3.69,-4.4 18.41,-6.27 23.14,-11.6 5.27,-5.95 10.01,-18.16 12.11,-25.05 1.58,-7.53 -2.64,-14.72 8.41,-24.75 11.07,-9.73 38.43,-8.46 43.17,-15.98 4.21,-7.53 8.42,-18.8 12.64,-26 3.15,-7.21 4.2,-19.74 12.09,-20.67 8.43,-0.62 20,-10.97 23.16,-17.23 3.15,-6.26 2.1,-11.27 5.27,-15.35 2.62,-4.7 7.88,-8.47 11.04,-11.6 3.69,-3.44 3.69,-16.29 8.95,-21 5.79,-4.38 11.05,-13.46 16.84,-6.57 6.3,6.57 28.42,-7.51 32.1,-12.53 3.68,-5.01 5.8,-15.98 12.64,-19.11 5.78,-3.14 19.47,-6.27 22.09,-9.72 3.69,-3.45 2.12,-10.66 11.07,-15.66 9.45,-5.02 16.31,-11.9 18.41,-18.18 1.6,-5.95 2.12,-16.6 8.43,-24.13 5.78,-6.87 6.83,-12.85 17.88,-19.73 10.54,-6.89 13.68,-7.2 25.27,-10.97 11.57,-3.75 26.32,-14.72 31.05,-16.6 4.74,-2.2 11.57,-5.33 19.47,-1.88 7.36,3.13 4.74,5.95 10,5.63 5.27,-0.3 44.2,-1.25 48.94,-1.88 4.74,-0.93 33.16,-1.56 36.32,0 3.67,1.58 21.58,1.58 31.05,4.4 8.41,3.12 15.79,5.32 19.99,5 4.74,-0.62 15.79,-3.74 22.1,-4.06 6.31,-0.31 25.26,-2.81 27.38,2.51 1.04,5.63 12.62,12.84 19.45,11.58 7.91,-0.62 24.74,6.58 20.54,-5.63 -4.22,-12.85 -11.07,-8.77 -12.11,-20.36 -2.1,-11.28 -1.58,-26.32 6.85,-34.15 7.88,-7.83 8.4,-10.03 11.04,-20.99 2.1,-11.27 -2.64,-25.69 5.79,-31.95 8.43,-6.27 21.57,-10.66 26.31,-13.8 4.74,-2.8 4.22,-6.57 13.17,-7.83 8.95,-0.94 6.83,3.75 14.21,-2.5 7.89,-5.95 5.26,-14.1 14.73,-13.8 10.53,0.95 16.84,4.07 23.68,1.9 6.85,-2.52 7.38,-12.85 22.63,-11.6 15.79,1.25 34.21,6.58 43.15,11.28 8.43,5.02 14.74,9.08 22.64,11.9 7.88,2.52 12.63,-0.3 20.52,3.77 7.9,3.75 8.42,2.8 16.83,3.12 7.38,0 10.53,-1.24 13.17,2.51 3.68,3.76 11.05,6.26 15.26,8.77 4.22,2.82 6.31,2.2 27.36,0.32 21.59,-2.2 59.47,-4.71 65.8,-5.97 6.84,-0.92 13.15,-20.67 18.94,-25.36 5.78,-4.4 50.52,-10.35 65.26,-10.97 14.73,-0.94 14.73,2.5 27.9,-4.7 13.17,-6.89 22.62,-10.03 31.04,-11.9 8.95,-1.88 8.43,-3.45 21.58,-10.65 13.16,-6.9 -3.15,-11.28 28.42,-9.73 31.04,1.9 17.9,1.25 29.48,4.7 12.62,3.15 9.47,7.23 24.73,1.58 15.27,-5.95 33.69,-10.97 54.22,-14.1 20.52,-3.75 17.88,-6.27 36.83,-5.95 18.95,0 24.73,1.25 31.56,-2.2 5.79,-3.44 0.53,-6.57 16.33,-10.33 16.31,-3.77 21.58,-5.33 29.46,-5.02 7.38,0.32 4.22,3.44 25.8,2.82 21.05,-0.62 37.89,-0.62 44.19,-4.7 5.81,-3.45 7.91,-8.77 11.07,-7.53 3.15,1.26 12.63,10.97 14.73,14.42 2.63,3.45 10.01,5.63 18.41,9.71 7.91,4.4 3.17,8.47 17.38,7.53 14.73,-0.63 27.36,-3.45 32.1,-4.71 5.78,-1.24 17.89,-4.07 22.63,-0.94 4.73,3.45 5.27,5.95 17.88,8.15 12.11,1.88 17.9,5.02 16.84,-2.2 0,-7.21 -2.63,-11.9 -2.1,-17.85 -0.53,-5.95 2.1,-8.77 3.16,-13.15 0.52,-4.71 0,-10.03 0.52,-19.73 -0.52,-9.4 -2.12,-16 2.62,-21.63 3.69,-5.95 0.53,-7.83 7.91,-11.59 8.42,-3.75 17.35,-8.14 19.47,-11.28 2.62,-3.45 6.31,-10.33 1.58,-11.9 -4.22,-1.88 -14.73,-7.83 -8.43,-12.22 6.33,-4.7 17.38,-10.65 23.16,-15.02 6.31,-4.4 18.43,-10.35 19.48,-14.1 2.1,-3.45 3.68,-2.5 3.68,-8.77 0.52,-6.58 -1.06,-15.36 -4.74,-21.61 -3.16,-6.27 0,-12.22 -8.42,-24.75 -10.01,-12.86 -15.27,-22.87 -18.96,-31.33 -3.66,-8.77 -9.47,-7.52 -8.4,-15.98 0.52,-8.46 0,-12.54 -2.64,-14.72 -2.63,-3.14 -10.01,0 -6.83,-10.97 4.21,-11.6 8.4,-8.77 5.78,-20.35 -1.58,-11.6 -11.57,-18.8 -10.52,-24.75 1.04,-6.58 3.66,-14.1 2.62,-17.55 -1.05,-3.12 0.52,-10.97 2.12,-13.47 0.52,-2.83 -1.6,1.57 1.04,-5.33 2.62,-6.25 11.57,-11.27 5.79,-14.72 -6.31,-3.45 -21.06,-7.21 -24.74,-6.88 -3.69,0.31 -14.21,7.21 -22.1,9.71 -7.38,2.51 -13.16,1.88 -16.33,-8.45 -2.62,-10.03 -4.72,-13.48 4.74,-18.5 10.01,-5.32 31.07,-13.78 35.81,-13.46 4.2,0.31 -4.22,0.93 16.83,-9.72 21.57,-10.66 48.95,-15.98 58.94,-20.99 10.01,-4.7 16.32,-5.02 23.15,-9.09 6.84,-3.45 13.16,-4.7 22.11,-9.08 8.93,-4.4 18.93,-11.27 24.2,-15.04 4.74,-3.13 17.37,-7.51 19.47,-8.77 2.64,-0.93 2.12,-6.88 11.07,-5.95 9.45,0.94 11.57,-0.93 15.78,3.14 4.74,4.07 8.94,5.95 16.32,6.88 6.83,1.57 22.09,4.07 28.94,0.94 7.89,-2.5 20.52,-4.7 21.57,-3.44 2.1,1.57 17.36,4.7 20,-2.83 3.69,-7.2 7.9,-28.18 5.79,-35.7 -2.63,-7.21 -6.31,-8.78 -15.27,-8.46 -9.47,0.93 -15.79,2.51 -13.15,-7.52 2.1,-10.66 -4.74,-15.05 1.58,-28.82 6.83,-13.16 10.52,-22.25 10,-33.83 -0.52,-10.97 -3.16,-10.65 -2.64,-20.05 0.52,-9.4 1.06,-23.19 7.91,-34.78 6.83,-11.28 14.21,-40.43 22.09,-57.95 6.85,-17.55 16.33,-35.73 18.43,-44.18 1.58,-8.77 -1.04,-32.28 5.79,-38.85 6.3,-5.95 5.26,-11.9 22.11,-5.95 16.31,5.65 29.46,12.53 43.15,13.48 13.16,1.24 17.89,0.92 35.26,-0.32 16.83,-0.93 18.43,0.62 22.11,1.57 3.67,0.63 16.84,-5 24.72,-5.95 7.38,-0.94 6.85,-1.24 13.17,-1.24 6.31,0 13.69,-5.33 22.1,-4.07 7.9,1.57 11.06,9.07 12.64,14.72 1.04,5.63 6.83,8.15 16.31,-0.32 8.95,-9.08 23.69,-19.73 29.48,-22.55 5.78,-2.83 18.43,-10.03 28.94,-10.96 10,-1.26 20.52,-9.39 22.1,-18.18 1.59,-8.47 3.68,-25.07 3.16,-29.77 0,-4.38 -3.16,-1.25 -8.95,-19.73 -5.78,-18.18 -15.79,-49.8 -14.21,-65.48 2.12,-15.36 -1.58,-32.9 2.12,-41.98 3.14,-9.07 6.83,-17.84 12.09,-21 5.79,-2.5 21.58,-3.43 34.74,-7.83 12.65,-5 45.26,-18.48 48.95,-23.8 4.74,-5.03 11.57,-13.48 12.63,-20.37 1.59,-7.21 -0.52,-10.66 0,-17.53 0.52,-7.22 -5.26,-15.98 -3.67,-25.7 1.58,-9.39 11.57,-20.67 15.79,-24.75 3.14,-3.75 12.09,-2.82 5.78,-11.27 -5.26,-8.46 -5.78,-9.71 -11.57,-15.98 -5.8,-6.25 -8.94,-11.28 -13.68,-13.78 -5.27,-2.5 -10.53,-1.88 -14.22,-7.83 -4.21,-6.27 -7.36,-11.29 -10.52,-11.6 -3.16,-1.24 -5.26,-4.7 -5.26,-4.7 0,0 -2.12,-7.52 -8.43,-6.89 -6.31,0.94 -17.88,6.57 -20.52,11.59 -1.58,5.33 -4.22,12.86 -5.26,16.93 -1.05,4.38 2.12,18.48 -10.53,11.58 -12.64,-6.26 -22.63,-10.66 -30,-12.22 -7.9,-1.25 -15.26,-9.38 -21.05,-4.06 -5.78,5.01 -3.16,7.21 -10,9.71 -7.38,2.2 -10,9.08 -19.47,5.65 -9.48,-4.07 -25.26,-20.67 -31.57,-31.64 -4.74,-11.6 -13.69,-22.88 -17.9,-30.08 -4.22,-6.57 -2.1,-7.21 -4.74,-14.72 -2.62,-6.9 -9.47,-10.34 -26.84,-18.49 -17.37,-8.14 -29.99,-12.21 -33.68,-12.21 -3.69,0 -15.27,0.32 -21.57,-6.9 -6.31,-7.51 -15.27,-20.67 -15.79,-27.25 -0.53,-6.57 -40,-57.64 -55.78,-68.61 -16.33,-11.9 -46.85,-21.61 -60,-24.75 -12.11,-3.45 -25.8,-9.08 -27.9,-5.63 -2.64,3.75 -3.16,15.98 -12.1,17.53 -7.9,1.58 -24.21,-2.18 -25.79,0.94 -2.63,3.45 1.06,14.72 -6.31,17.85 -6.83,3.14 -16.31,0.94 -16.84,3.77 -1.04,2.8 1.58,7.51 -4.74,8.75 -6.3,0.95 -14.21,-4.05 -21.05,-6.87 -7.38,-3.45 -10.52,-5.03 -11.59,-0.32 -1.57,4.4 3.17,13.79 -6.83,8.15 -11.04,-6.27 -18.43,-12.22 -27.36,-15.03 -8.42,-2.52 -13.68,-8.47 -23.15,-1.9 -8.95,6.27 -13.69,10.66 -22.64,8.47 -8.41,-2.2 -8.93,0 -12.63,-10.65 -3.16,-10.97 -4.21,-28.52 -18.43,-32.28 -13.67,-3.75 -19.47,-3.44 -25.25,-3.44 -5.79,0.62 -12.1,12.85 -11.05,-5.33 0.52,-17.85 -8.95,-35.08 -10.53,-36.33 -1.58,-1.58 3.16,4.38 -11.57,-2.2 -14.73,-6.27 -15.27,-8.15 -21.07,-10.03 -5.26,-1.88 -17.35,-10.03 -18.93,-5.02 -1.6,5.02 -3.69,13.79 -6.33,14.1 -2.62,0.32 -17.88,-4.7 -19.47,-0.93 -0.52,3.75 -1.05,7.83 3.68,15.03 3.17,7.2 11.05,14.1 6.31,20.67 -4.72,6.57 -16.83,11.27 -21.05,14.42 -4.74,2.5 -8.41,15.98 -8.41,16.9 0.52,1.88 -1.06,9.09 -7.38,9.73 -5.78,0 -360.49,-528.82 -362.07,-532.57 -1.58,-3.45 -223.68,-208.64 -223.68,-210.54 -0.52,-2.5 -1.04,-21.92 4.74,-20.67 6.33,1.25 8.43,10.35 15.79,7.85 6.85,-1.9 15.29,-10.03 15.81,-13.8 2.1,-3.12 15.26,-0.62 10,-11.9 -4.74,-10.95 -12.64,-9.7 -11.06,-15.02 2.11,-5.02 4.21,-14.72 0.54,-15.98 -2.64,-0.94 -10.55,-3.14 -22.12,5.33 -11.57,8.45 -14.73,10.65 -19.99,10.65 -4.74,-0.32 -15.79,-5.95 -22.1,-11.6 -5.79,-5 -12.64,-13.78 -17.37,-10.97 -4.22,3.45 -2.63,14.1 -8.41,17.24 -6.85,2.51 -20,0.63 -32.64,5.01 -12.63,5.02 -31.05,11.28 -35.26,13.47 -4.75,1.88 -12.63,-7.82 -17.36,-5.02 -5.26,2.2 -8.95,3.77 -7.38,12.22 2.12,8.15 -17.36,26.33 -23.16,29.45 -5.79,3.45 -7.89,11.28 -19.46,9.08 -11.58,-1.88 -26.33,-7.51 -34.2,-7.83 -6.85,-0.3 -8.43,4.7 -13.17,7.53 -4.74,3.12 -1.04,7.2 -11.57,4.7 -9.47,-2.5 -16.31,-4.4 -18.95,-1.58 -2.62,3.13 -8.95,6.58 -7.36,14.73 2.1,8.14 5.26,8.77 5.78,15.67 0.52,6.88 3.69,12.53 3.15,16.6 -1.05,3.75 -1.05,9.4 -7.37,7.21 -7.38,-1.88 -10.52,-11.9 -12.09,-15.36 -1.6,-3.12 -15.81,-14.4 -21.07,-15.67 -5.78,-0.93 -11.05,0.62 -14.21,-3.43 -4.72,-3.77 -2.62,-2.82 -10.53,-11.92 -7.36,-9.07 -12.09,-14.08 -17.87,-13.46 -6.31,0.63 -8.95,5.33 -13.17,8.76 -3.69,3.45 -12.63,2.52 -18.95,-2.81 -6.31,-5.02 -12.63,-7.84 -13.15,-1.89 0,5.96 -4.74,10.97 -7.38,11.91 -1.58,0.31 -5.26,-10.65 -8.41,-0.32 -2.64,10.66 -5.26,14.72 -9.47,7.21 -4.22,-6.57 -2.64,-10.33 -10,-14.72 -6.85,-4.39 -9.47,-2.81 -11.59,-6.88 -3.15,-3.45 -6.83,-8.15 -6.31,-13.47 0.52,-5.65 0.52,-12.54 0.52,-15.36 -1.04,-2.82 3.17,-6.27 4.22,-6.27 1.58,0.32 1.58,-0.93 1.05,-6.57 0.52,-5.63 0.52,-6.89 5.26,-6.89 4.74,0.32 6.85,-3.13 7.38,-7.83 1.05,-4.39 -7.38,-12.54 2.62,-11.9 10.55,0.94 12.65,8.15 18.43,10.03 5.79,1.24 13.69,6.27 15.79,-4.71 2.12,-10.95 -0.52,-21.62 1.05,-27.25 2.11,-5.02 3.16,-12.53 -0.53,-15.98 -3.67,-3.13 -9.47,-7.83 -12.62,-2.82 -3.69,5.02 -12.65,12.53 -15.79,16.3 -2.64,3.44 0,7.82 -14.74,2.5 -14.21,-5.33 -26.85,-10.35 -32.64,-10.35 -6.3,0.32 -8.4,1.58 -13.14,-3.75 -4.74,-5.33 -8.43,-10.97 -11.59,-14.1 -4.74,-2.82 -6.83,2.2 -8.93,-7.52 -2.64,-10.03 -2.12,-11.58 -10.55,-17.85 -8.93,-6.58 -16.31,-6.88 -24.73,-11.9 -8.93,-4.39 -16.84,-7.21 -18.41,-7.53 -2.12,0 -8.95,-2.18 -8.43,4.07 0,5.95 -0.52,7.21 4.22,14.42 5.26,6.88 8.42,10.96 8.42,13.78 -1.06,2.5 -6.84,2.2 -11.06,-0.32 -3.67,-2.18 -4.2,-4.7 -5.26,-0.3 -2.1,4.7 -1.58,12.85 -12.63,9.39 -10.53,-3.13 -14.73,-2.2 -13.17,-8.45 1.6,-6.59 7.91,-12.85 1.6,-20.69 -5.8,-7.2 -10.54,-3.75 -8.43,-10.95 1.05,-7.21 7.89,-17.23 -0.52,-20.37 -8.95,-2.81 -13.16,-11.58 -12.64,0 1.04,11.59 -0.52,10.03 0,25.69 1.04,15.03 1.59,19.73 1.04,23.81 -0.52,4.07 -5.26,7.53 -5.26,13.17 -0.52,5.63 -1.58,11.28 -4.74,11.28 -4.2,0.62 -14.19,-4.4 -15.27,0.3 -0.52,4.7 -1.04,7.21 -1.04,14.1 1.04,6.89 -2.62,18.18 -11.57,18.18 -8.95,-0.32 -14.21,-2.83 -18.95,-8.78 -5.79,-5.64 -9.47,-15.35 -16.31,-9.07 -6.83,6.25 -8.95,13.15 -11.05,15.02 -2.12,1.88 -6.33,3.45 -11.05,-3.12 -3.16,-6.57 -15.28,-25.07 -15.81,-31.65 0,-6.57 -0.52,-20.98 6.85,-17.22 7.36,3.75 13.15,6.27 13.67,-1.88 -0.52,-7.83 0,-7.21 -4.2,-21.63 -5.26,-14.72 -11.59,-24.43 -12.11,-34.45 -0.52,-10.34 -3.14,-10.03 1.05,-15.04 4.21,-5 7.38,-7.51 6.32,-12.2 -2.12,-5.02 -5.26,-9.73 -10.52,-12.85 -6.85,-2.51 -11.07,-15.04 -11.59,-21 -0.53,-5.95 1.04,-13.46 -6.31,-21.61 -7.36,-7.83 -10,-9.4 -10,-16.6 0.52,-7.53 -1.05,-16.93 0,-21.01 0,-4.38 -2.1,-17.54 -1.58,-23.49 0,-5.95 2.62,-11.9 -4.74,-16.6 -7.38,-5.01 -13.17,-5.33 -15.27,-12.53 -2.64,-7.21 -7.38,-17.55 -11.59,-15.36 -3.66,2.2 -6.83,10.65 -9.45,13.48 -3.68,2.5 -3.68,-6.9 -14.21,-1.58 -10.53,5.33 -12.11,11.9 -15.79,18.48 -4.22,6.27 0.52,14.72 -11.06,11.29 -11.05,-3.76 -14.22,-8.77 -17.88,-11.91 -3.69,-2.81 1.04,7.84 -8.43,-5.63 -8.95,-13.48 -28.42,-26 -30.52,-27.26 -1.58,-1.57 -6.31,-1.88 -16.31,-0.32 -10.53,1.58 -12.64,-1.56 -17.38,-3.44 -3.66,-2.19 -6.3,8.47 -16.31,6.57 -10.52,-2.18 -15.26,-17.22 -23.69,-20.03 -8.41,-3.14 -12.09,-2.52 -11.57,5.33 0.52,8.13 4.74,19.1 -4.74,14.4 -8.95,-4.71 -14.73,-13.78 -17.89,-10.03 -2.63,3.44 -8.41,12.85 -7.37,21.62 1.05,9.08 -6.83,10.03 -6.83,18.17 0,8.46 -2.12,13.17 -8.42,12.85 -7.37,0 -16.32,-6.27 -21.06,3.12 -5.26,9.73 -2.11,14.73 -2.64,18.5 -0.52,3.75 -6.3,7.21 -5.78,16.91 0.52,9.72 7.38,13.17 -0.52,19.12 -7.91,6.25 -13.17,7.51 -17.36,7.51 -4.22,0 -15.81,1.89 -20.54,1.57 -4.72,-0.94 -6.83,5.65 -10,10.98 -4.2,5 -19.46,14.72 -28.4,16.28 -8.95,1.25 -12.65,-5.63 -16.85,-3.75 -3.67,2.5 -3.15,4.7 -9.46,9.08 -5.28,4.06 -5.28,0.62 -11.59,3.14 -6.83,2.18 -14.21,5.63 -16.83,7.83 -3.68,2.5 -5.78,-4.71 -11.05,0.3 -5.78,5.02 -11.59,10.65 -16.85,14.1 -5.78,3.14 -10.52,-1.88 -24.21,2.82 -12.63,5.01 -14.2,10.97 -23.68,12.85 -8.95,1.88 -14.21,-4.7 -23.16,2.83 -9.47,7.51 -6.83,8.75 -14.73,10.65 -7.89,2.18 -10.53,2.81 -13.15,-4.4 -3.16,-6.89 -7.9,-21.3 -13.16,-14.1 -5.79,7.53 0.52,11.9 -10.01,17.87 -10.52,6.25 -22.09,4.38 -25.78,2.8 -4.22,-1.88 -7.9,-6.25 -15.26,1.25 -7.39,6.89 -22.12,21.62 -26.86,26 -5.26,4.07 -10.52,18.5 -6.31,23.49 3.17,5.02 12.65,9.09 4.74,14.42 -8.94,5.95 -17.88,6.25 -22.62,0.93 -4.74,-5.33 -8.42,-10.65 -14.21,-6.26 -5.26,4.06 -1.04,9.71 -13.16,11.58 -13.15,1.25 -17.88,-3.44 -21.58,-4.07 -2.64,-0.3 -6.83,2.83 -13.16,7.53 -6.31,4.7 -15.27,1.88 -18.41,0 -3.17,-1.58 -10.01,-2.2 -18.43,0.94 -7.91,3.13 -14.74,0.93 -15.79,8.78 -0.52,7.82 -5.26,15.97 -4.22,20.35 1.05,4.7 -6.83,11.59 -10,10.03 -3.69,-0.95 -6.31,-14.73 -16.84,-15.68 -11.06,-1.56 -16.85,6.59 -20.53,8.47 -3.15,2.18 -17.36,5.63 -26.84,5.95 -10,-0.32 -21.57,-3.77 -24.21,2.2 -1.58,5.63 3.16,10.96 -3.67,15.03 -5.8,3.74 -12.64,1.88 -16.33,3.74 -3.67,2.2 1.06,8.78 -5.78,6.27 -5.79,-2.82 -7.89,-7.52 -15.27,-4.07 -7.36,3.13 -16.31,5.65 -20.52,7.53 -3.16,1.25 -2.62,0.3 -7.36,11.58 -5.26,11.29 -4.22,14.1 -9.47,13.48 -5.79,-0.93 -8.43,-11.9 -11.07,-15.66 -2.62,-3.77 -4.2,-8.78 -14.71,-5.65 -11.07,3.14 -15.81,0.62 -22.64,0 -5.79,-0.3 -10,-7.53 -10.53,5.65 -0.52,13.47 2.1,21.92 -3.16,17.84 -5.26,-4.06 -5.78,-6.26 -11.05,-13.15 -4.74,-6.57 -7.88,-9.4 -14.21,-7.85 -6.31,1.27 -12.62,3.45 -14.73,5.33 -2.1,2.2 -6.31,10.67 -8.93,5.97 -2.64,-5.03 -3.17,-15.05 -7.38,-17.87 -5.27,-2.5 -9.47,-10.33 -17.36,-5.63 -8.42,4.07 -16.33,5.01 -14.73,12.85 1.58,8.14 6.83,6.26 2.1,14.09 -4.74,8.14 -7.37,7.84 -11.05,8.46 -3.16,0.31 -6.31,5.01 -2.12,8.78 4.22,3.43 6.85,3.43 7.9,7.83 0,4.07 -1.04,11.27 -2.1,20.04 -1.59,8.78 -7.38,11.58 -12.64,19.73 -3.68,8.15 -5.26,10.35 -1.58,16.3 4.22,6.25 3.69,8.15 7.89,7.53 3.68,-0.64 7.38,-2.52 14.21,-2.83 6.85,0 10,-3.76 18.95,-0.32 8.95,3.45 12.63,-1.24 12.09,12.86 0,13.47 2.12,18.48 -4.2,20.67 -7.38,2.2 -15.26,5.95 -21.06,0.62 -6.31,-5.01 -14.74,-14.72 -17.88,-4.38 -2.64,10.33 -1.05,21.61 1.57,26.31 2.12,4.4 3.69,10.03 12.12,10.03 7.88,0.62 12.62,1.25 15.78,6.89 2.63,6.25 6.83,16.6 13.15,15.98 6.85,-0.62 3.69,-6.89 10.53,-5.33 5.26,0.93 5.26,2.51 11.59,11.9 6.83,9.08 13.14,16.92 17.87,16.6 5.79,0 12.65,-0.92 17.9,2.83 5.26,4.38 8.41,8.77 8.95,17.54 0,8.76 4.74,16.91 -7.9,23.81 -12.63,6.57 -15.79,5.95 -23.16,0.94 -6.31,-5.34 -10.53,-11.59 -16.84,-4.4 -6.3,6.9 -11.04,15.36 -18.95,8.78 -7.88,-6.9 -5.78,-15.36 -18.41,-12.22 -12.11,3.14 -11.59,7.52 -16.33,6.57 -4.2,-1.25 -3.14,-11.9 -12.09,-6.88 -8.95,4.71 -16.31,5.95 -17.9,12.54 -2.62,5.63 5.27,5.63 -3.14,15.98 -7.91,10.34 -12.11,10.97 -15.27,14.4 -3.16,4.07 -0.52,11.29 -5.78,13.47 -6.33,2.83 -12.11,-3.12 -14.21,2.83 -2.12,5.95 -7.39,10.33 -0.53,17.22 7.37,7.53 7.37,3.77 11.05,9.09 3.15,5.63 0.52,5.33 3.69,15.98 2.1,10.03 5.26,11.58 8.4,15.66 2.12,4.4 7.91,10.03 5.79,21 -2.1,11.28 1.06,5.95 0,21.61 0,15.04 -2.1,14.42 -8.41,21 -6.32,6.57 -13.16,10.65 -17.37,15.36 -4.22,3.75 -12.63,4.07 -18.95,7.83 -5.79,3.44 -7.89,7.52 -11.57,8.45 -4.74,1.9 -5.79,0 -14.74,5.02 -8.95,5.33 -10,6.89 -14.21,11.9 -3.67,4.38 -4.74,6.89 -9.45,7.83 -4.74,1.25 -11.07,1.25 -14.73,3.14 -3.17,2.19 -14.74,-2.2 -11.07,5.95 3.16,7.83 3.68,10.34 8.95,11.28 5.78,1.56 5.26,-2.82 13.16,6.25 7.37,8.15 8.41,10.65 15.79,15.04 6.31,4.39 13.17,-0.32 14.74,11.9 1.04,11.9 -3.69,20.05 -4.22,22.87 0,2.83 2.1,9.71 13.16,9.4 11.05,0 23.68,-6.27 30,3.45 6.83,9.37 -3.16,8.75 10.53,19.4 13.15,10.35 11.05,4.4 17.88,14.73 7.38,10.65 10.52,16.92 15.26,15.97 5.27,-0.92 0,-4.07 15.79,-5.94 14.74,-1.25 16.85,-5.95 20.54,8.14 3.67,13.48 6.83,14.42 13.15,17.85 6.84,3.77 16.85,0.63 11.04,11.28 -5.78,10.35 -10,15.04 -16.83,35.1 -7.36,20.67 -13.69,43.85 -16.31,57.63 -1.59,13.8 -5.79,16.62 -17.37,24.13 -11.05,7.53 -35.27,21.93 -42.62,24.75 -8.42,2.83 -8.42,5.65 -24.74,3.45 -16.31,-2.2 -43.68,-3.45 -49.99,-7.53 -6.83,-4.07 -17.37,-20.67 -22.1,-25.68 -3.68,-5.02 -13.69,-21 -16.33,-20.04 -3.14,0.92 -4.21,6.57 -5.26,13.78 -2.1,7.52 -6.83,25.37 -14.21,31.02 -6.83,5.32 -9.47,14.4 -21.05,14.09 -11.05,-0.62 -22.1,-2.51 -24.74,-6.89 -2.62,-4.7 -5.26,-11.27 -17.35,-12.85 -12.65,-1.25 -11.59,1.88 -17.9,-3.45 -5.79,-5.32 -12.63,-8.13 -19.47,-7.83 -6.83,0 -10.01,0.32 -17.36,-4.38 -7.38,-5.33 -14.21,-10.65 -17.37,-13.47 -3.67,-2.83 -3.67,-9.73 -11.57,-11.9 -7.89,-2.2 -16.84,-1.25 -17.36,-8.15 -1.6,-6.9 -6.85,-14.72 -6.85,-24.13 -1.04,-9.08 -2.62,-22.25 -3.67,-25.68 -1.59,-3.14 -11.06,0.93 -14.21,-2.82 -2.64,-3.45 -3.68,-9.09 -11.05,-9.09 -6.84,0 -11.58,8.77 -16.32,6.89 -4.22,-1.58 -3.15,-10.33 -12.1,-10.65 -8.42,-0.32 -10,3.44 -16.83,3.44 -6.85,0.31 -11.59,-8.15 -13.69,-4.7 -2.64,3.13 0,15.03 -4.22,20.99 -4.22,5.64 -15.79,10.97 -24.73,8.46 -8.95,-1.88 -10.01,2.19 -18.96,-7.2 -8.94,-9.09 -13.14,-21.63 -26.31,-30.7 -12.64,-8.78 -20,-5.03 -25.78,-2.52 -5.26,2.2 -17.37,4.07 -17.37,2.52 -1.05,-1.27 -8.41,-8.47 -11.05,-4.4 -2.63,4.07 -1.05,12.53 -6.31,13.78 -4.74,2.2 -6.31,-0.31 -11.57,-1.88 -5.26,-0.93 -15.27,-6.58 -17.38,2.52 -2.62,9.71 -7.36,11.9 -7.36,11.9 0,0 -8.42,-3.77 -12.11,-0.95 -2.62,2.83 -6.83,-3.44 -13.67,-2.5 -6.33,1.25 -10.54,2.2 -9.47,15.02 1.04,12.55 3.67,22.25 -1.6,27.26 -5.78,4.7 -19.47,8.47 -25.78,15.04 -6.83,6.27 -17.88,10.97 -22.09,13.78 -4.22,2.52 -10.53,6.57 -15.27,2.82 -4.22,-3.75 -7.38,-11.9 -13.17,-15.35 -6.83,-3.45 -8.42,-2.51 -12.09,-5.01 -3.68,-2.52 -2.64,-8.77 -10,-10.97 -7.38,-2.2 -6.85,5.95 -12.65,-5.01 -5.78,-10.97 -23.14,-27.27 -24.21,-34.14 -2.62,-6.9 5.26,-7.85 -4.2,-12.86 -9.47,-5.02 -8.95,-3.12 -12.64,-6.89 -3.69,-3.75 -10.53,-17.53 -12.63,-19.42 -2.64,-2.19 -10.54,-18.17 -16.33,-3.75 -5.26,13.78 -1.58,21.62 -2.62,29.45 0,7.53 -3.69,10.03 0,18.18 3.67,8.45 6.31,12.83 1.58,19.42 -5.27,6.58 -12.63,11.28 -16.31,14.41 -3.17,3.12 -23.7,5.64 -23.7,-4.71 0,-10.65 3.17,-23.17 5.79,-32.27 1.05,-8.76 8.95,-7.83 -1.58,-19.43 -10,-12.2 -25.26,-20.67 -26.31,-24.43 -1.6,-3.75 5.78,-18.48 3.14,-22.55 -1.04,-4.7 -7.88,-18.8 -14.73,-23.18 -6.83,-4.7 -20.52,-13.17 -25.78,-15.04 -3.69,-1.25 -17.36,1.58 -19.48,-7.83 -1.57,-9.72 -1.57,-13.47 -4.21,-17.22 -2.63,-3.77 -6.83,-1.58 -5.79,-8.78 0,-7.2 5.26,-1.57 -3.14,-15.67 -8.95,-14.72 -12.11,-23.81 -16.86,-27.25 -4.74,-3.13 -4.74,1.24 -12.09,1.24 -7.38,-0.3 -6.83,-9.71 -11.05,-9.07 -4.21,0.62 -3.16,7.83 -8.94,7.52 -5.79,0.31 -4.75,-4.7 -10.01,-4.4 -5.26,0 -10.52,6.27 -14.73,5.33 -3.16,-1.25 -7.36,-11.58 -8.95,-11.9 -2.1,-0.3 -8.41,0 -17.88,3.45 -9.47,3.44 -17.37,8.14 -20.52,3.75 -2.64,-5.33 -11.06,-6.58 -10,-18.17 1.58,-11.59 -3.69,-20.67 -7.9,-28.82 -4.22,-8.15 -6.31,-18.18 -13.69,-15.98 -8.41,2.19 -6.83,2.81 -15.27,5.33 -8.41,2.81 -8.41,-1.58 -14.73,-1.58 -6.31,0 -18.93,2.51 -22.62,6.9 -2.64,4.38 -8.43,6.87 -7.38,11.9 0.52,5.95 5.26,9.07 -1.58,13.47 -5.26,4.07 -11.05,8.45 -19.99,10.03 -10.01,1.25 -15.27,0 -17.9,-4.7 -3.15,-4.07 -4.2,-10.98 -14.19,-9.1 -9.47,2.52 -15.81,3.45 -14.74,-1.24 0.52,-4.38 -1.06,-12.53 2.1,-16.6 3.17,-4.07 8.95,-13.16 1.58,-17.55 -7.89,-4.38 -10,-6.88 -20.52,-6.25 -10.52,0.93 -12.09,-0.63 -18.93,-1.25 -6.85,-0.32 -14.74,2.81 -14.21,6.88 0,4.4 2.62,9.72 -3.69,10.35 -6.83,0.3 -5.78,-6.9 -13.16,-6.58 -7.89,0 -19.48,11.28 -18.42,13.78 1.05,2.2 -0.52,6.58 -5.26,8.78 -4.74,2.5 -11.59,0.62 -13.69,6.89 -1.57,5.95 -12.09,10.03 -14.73,12.83 -3.16,2.52 -3.69,6.27 -6.83,10.03 -3.16,3.77 -10.53,2.52 -16.33,5.33 -5.78,2.2 -15.79,6.57 -23.14,8.15 -7.38,1.88 -16.85,-0.31 -22.11,10.03 -4.75,10.03 -13.15,11.27 -18.94,12.22 -5.8,0.62 -10.54,-3.15 -22.11,-0.63 -12.1,2.19 -20,-0.94 -21.05,9.71 -0.53,10.65 6.83,10.03 4.21,17.23 -2.11,7.52 -3.16,10.35 -10,13.47 -6.85,2.83 -22.64,7.83 -22.64,7.83z"/>
  <path class="fil0" d="M6763.85 1065.22c-18.59,23.95 -37.08,52.47 -53.27,78.19 -48.61,78.45 -85.97,159.94 -112.29,243.1 -71.1,179.19 -97.23,360.17 -91.38,534.93 -386.6,-453.98 -1203.97,-811.56 -1897.16,-367.4 2264.73,357.95 3242.97,2182.09 2739.78,4819.69l16.48 0c1735.77,-1526.38 109.26,-3159.7 -206.48,-3712.51 -243.07,-425.03 -316.99,-904.5 -124.36,-1242.96 87.4,-140.62 213.73,-289 371.51,-351.39 226.29,-108.06 504.77,-110.36 741.51,16.68 108.31,58.16 200.51,140.21 267.21,238.48 148.66,218.96 106.87,599 16.28,744.83 -90.6,146.02 -70.73,99.03 -113.5,140.4l-0.38 -0.21c-112.75,104.86 -334.32,107.46 -435.35,53.25 -101.25,-54.45 -103.14,-74.92 -133.78,-125.54 -7.53,-14.06 -7.11,-31.96 1.41,-45.6 8.64,-14.06 22.32,-21.7 37.37,-23.91 123.93,-8.05 227.89,-49.82 307.93,-178.77 80.15,-128.96 56.66,-337.06 -77.92,-448.14 -102.27,-82.56 -248.49,-111.88 -377.64,-72.3l-0.41 0.19c-524.67,161.5 -468.34,982.64 24.01,1246.8 114,61.26 235.94,98.42 368.79,99.03 227.56,7.82 452.53,-74.92 612.41,-233.21l0.38 0.4c62.46,-62.07 102.63,-106.68 166.13,-208.5 63.28,-102.04 128.32,-262.74 149.86,-399.52 29.34,24.5 61.86,46.59 97.58,65.87 276.02,148.06 696.28,-47.79 788.65,-196.45 34.31,-51.41 45.6,-80.33 57.05,-126.72 4.83,-20.3 -7.66,-43.2 -24.73,-52.45 -17.23,-9.44 -31.34,-8.43 -45.6,-3.21 -210.08,89.58 -517.23,56.86 -677.49,-29.14 -160.33,-85.96 -189.89,-133.56 -251.31,-222.13 -54.43,-74.1 -86.94,-163.77 -143.02,-236.28 -102.04,-138.8 -237.24,-255.6 -394.71,-339.98 -191.1,-102.54 -399.48,-151.25 -605.16,-151.25 -388.19,0 -766.18,172.87 -998.4,485.74z"/>
  <path class="fil1" d="M10177.49 3366.48l0 -1103.91 270.19 0 0 872.32 450.83 0 0 231.59 -721.02 0zm852.25 0l0 -1103.91 691.68 0 0 231.59 -421.49 0 0 200.72 336.58 0 0 231.59 -336.58 0 0 208.43 443.1 0 0 231.59 -713.29 0zm802.84 -138.95l142.04 -205.34c34.99,30.87 76.68,57.64 125.05,80.28 48.37,22.64 95.21,33.97 140.5,33.97 36.03,0 64.07,-7.21 84.14,-21.62 20.07,-14.41 30.11,-32.94 30.11,-55.58 0,-23.68 -12.09,-45.54 -36.28,-65.62 -24.19,-20.07 -54.3,-36.8 -90.33,-50.18 -36.02,-13.38 -75.13,-30.62 -117.33,-51.72 -42.2,-21.11 -81.31,-43.49 -117.33,-67.16 -36.03,-23.68 -66.14,-56.35 -90.33,-98.04 -24.19,-41.68 -36.28,-89.8 -36.28,-144.35 0,-100.87 37.31,-182.44 111.93,-244.71 74.62,-62.28 170.61,-93.41 287.94,-93.41 136.89,0 252.18,41.69 345.84,125.06l-114.24 220.78c-31.92,-27.79 -69.99,-50.95 -114.25,-69.48 -44.26,-18.53 -87.5,-27.79 -129.69,-27.79 -39.11,0 -68.45,7.21 -88.01,21.62 -19.56,14.41 -29.34,33.45 -29.34,57.13 0,23.68 12.09,45.28 36.28,64.84 24.19,19.56 54.3,35.77 90.33,48.64 36.02,12.87 75.13,29.34 117.33,49.41 42.2,20.06 81.31,41.68 117.34,64.84 36.02,23.15 66.13,55.58 90.32,97.26 24.19,41.69 36.28,89.8 36.28,144.36 0,97.78 -34.74,179.61 -104.22,245.49 -69.47,65.87 -165.46,98.81 -287.94,98.81 -74.11,0 -146.42,-13.38 -216.92,-40.15 -70.5,-26.76 -131.49,-65.87 -182.95,-117.33zm887.76 0l142.04 -205.34c34.99,30.87 76.68,57.64 125.05,80.28 48.37,22.64 95.21,33.97 140.5,33.97 36.03,0 64.07,-7.21 84.14,-21.62 20.07,-14.41 30.11,-32.94 30.11,-55.58 0,-23.68 -12.09,-45.54 -36.28,-65.62 -24.19,-20.07 -54.3,-36.8 -90.33,-50.18 -36.02,-13.38 -75.13,-30.62 -117.33,-51.72 -42.2,-21.11 -81.31,-43.49 -117.33,-67.16 -36.03,-23.68 -66.14,-56.35 -90.33,-98.04 -24.19,-41.68 -36.28,-89.8 -36.28,-144.35 0,-100.87 37.31,-182.44 111.93,-244.71 74.62,-62.28 170.61,-93.41 287.94,-93.41 136.89,0 252.18,41.69 345.84,125.06l-114.24 220.78c-31.92,-27.79 -69.99,-50.95 -114.25,-69.48 -44.26,-18.53 -87.5,-27.79 -129.69,-27.79 -39.11,0 -68.45,7.21 -88.01,21.62 -19.56,14.41 -29.34,33.45 -29.34,57.13 0,23.68 12.09,45.28 36.28,64.84 24.19,19.56 54.3,35.77 90.33,48.64 36.02,12.87 75.13,29.34 117.33,49.41 42.2,20.06 81.31,41.68 117.34,64.84 36.02,23.15 66.13,55.58 90.32,97.26 24.19,41.69 36.28,89.8 36.28,144.36 0,97.78 -34.74,179.61 -104.22,245.49 -69.47,65.87 -165.46,98.81 -287.94,98.81 -74.11,0 -146.42,-13.38 -216.92,-40.15 -70.5,-26.76 -131.49,-65.87 -182.95,-117.33zm903.19 -419.95c0,-160.57 54.04,-294.63 162.12,-402.19 108.07,-107.56 246.51,-161.34 415.31,-161.34 168.81,0 307.25,53.78 415.32,161.34 108.07,107.56 162.12,241.62 162.12,402.19 0,164.69 -54.05,302.09 -162.12,412.23 -108.07,110.13 -246.51,165.2 -415.32,165.2 -168.8,0 -307.24,-55.07 -415.31,-165.2 -108.08,-110.14 -162.12,-247.54 -162.12,-412.23zm279.45 0c0,94.69 28.05,173.44 84.14,236.21 56.1,62.79 127.38,94.18 213.83,94.18 86.46,0 157.74,-31.39 213.83,-94.18 56.1,-62.78 84.15,-141.52 84.15,-236.21 0,-90.58 -28.05,-165.98 -84.15,-226.19 -56.09,-60.22 -127.37,-90.32 -213.83,-90.32 -86.45,0 -157.73,30.1 -213.83,90.32 -56.09,60.21 -84.14,135.61 -84.14,226.19zm1046.79 558.9l0 -1103.91 273.27 0 305.7 515.67c12.34,21.62 26.24,48.11 41.68,79.51 15.45,31.39 27.79,57.39 37.05,77.97l13.9 30.88 3.09 0c-8.24,-79.26 -12.35,-142.04 -12.35,-188.36l0 -515.67 270.19 0 0 1103.91 -271.73 0 -307.24 -514.13c-12.35,-21.62 -26.24,-48.12 -41.69,-79.52 -15.44,-31.39 -27.79,-57.38 -37.05,-77.96l-13.89 -30.88 -3.09 0c8.24,79.26 12.35,142.04 12.35,188.36l0 514.13 -270.19 0zm1474.46 -138.95l142.04 -205.34c34.99,30.87 76.68,57.64 125.05,80.28 48.37,22.64 95.21,33.97 140.5,33.97 36.03,0 64.07,-7.21 84.14,-21.62 20.07,-14.41 30.11,-32.94 30.11,-55.58 0,-23.68 -12.09,-45.54 -36.28,-65.62 -24.19,-20.07 -54.3,-36.8 -90.33,-50.18 -36.02,-13.38 -75.13,-30.62 -117.33,-51.72 -42.2,-21.11 -81.31,-43.49 -117.33,-67.16 -36.03,-23.68 -66.14,-56.35 -90.33,-98.04 -24.19,-41.68 -36.28,-89.8 -36.28,-144.35 0,-100.87 37.31,-182.44 111.93,-244.71 74.62,-62.28 170.61,-93.41 287.94,-93.41 136.89,0 252.18,41.69 345.84,125.06l-114.24 220.78c-31.92,-27.79 -69.99,-50.95 -114.25,-69.48 -44.26,-18.53 -87.5,-27.79 -129.69,-27.79 -39.11,0 -68.45,7.21 -88.01,21.62 -19.56,14.41 -29.34,33.45 -29.34,57.13 0,23.68 12.09,45.28 36.28,64.84 24.19,19.56 54.3,35.77 90.33,48.64 36.02,12.87 75.13,29.34 117.33,49.41 42.2,20.06 81.31,41.68 117.34,64.84 36.02,23.15 66.13,55.58 90.32,97.26 24.19,41.69 36.28,89.8 36.28,144.36 0,97.78 -34.74,179.61 -104.22,245.49 -69.47,65.87 -165.46,98.81 -287.94,98.81 -74.11,0 -146.42,-13.38 -216.92,-40.15 -70.5,-26.76 -131.49,-65.87 -182.95,-117.33zm1201.17 138.95l0 -872.32 -335.03 0 0 -231.59 940.26 0 0 231.59 -335.04 0 0 872.32 -270.19 0zm727.2 -406.06l0 -697.85 270.19 0 0 697.85c0,56.61 17.24,100.36 51.73,131.23 34.47,30.88 81.05,46.32 139.72,46.32 58.66,0 105.24,-15.44 139.72,-46.32 34.47,-30.87 51.72,-74.62 51.72,-131.23l0 -697.85 270.19 0 0 697.85c0,125.57 -42.2,227.73 -126.6,306.48 -84.41,78.73 -195.57,118.11 -333.5,118.11 -138.95,0 -250.89,-39.37 -335.8,-118.11 -84.92,-78.74 -127.37,-180.9 -127.37,-306.48zm1142.51 406.06l0 -1103.91 392.16 0c174.97,0 313.67,48.64 416.08,145.9 102.42,97.27 153.63,231.85 153.63,403.74 0,172.92 -51.21,308.54 -153.63,406.83 -102.41,98.3 -241.11,147.44 -416.08,147.44l-392.16 0zm270.19 -231.59l111.16 0c94.69,0 168.55,-27.79 221.55,-83.37 53.01,-55.58 79.52,-135.36 79.52,-239.31 0,-102.92 -26.77,-181.67 -80.29,-236.22 -53.52,-54.55 -127.11,-81.83 -220.78,-81.83l-111.16 0 0 640.74zm1043.69 231.59l0 -452.37 -364.37 -651.53 307.24 0 125.05 265.56 66.39 159.02 3.09 0c20.58,-55.58 42.71,-108.59 66.39,-159.02l123.52 -265.56 307.24 0 -364.37 651.53 0 452.37 -270.19 0zm-10569.28 2632.7l0 -1697.2 415.4 0 0 655.15 170.91 0 351.31 -655.15 446.26 0 -458.13 811.81 0 4.75 484.23 880.64 -465.24 0 -358.44 -688.38 -170.91 0 0 688.38 -415.4 0zm1417.1 0l576.81 -1697.2 436.77 0 576.8 1697.2 -427.26 0 -104.45 -356.06 -529.33 0 -102.07 356.06 -427.27 0zm626.66 -688.38l334.69 0 -94.94 -329.94 -68.84 -291.97 -4.75 0c-25.32,123.43 -48.26,220.76 -68.84,291.97l-97.32 329.94zm1044.43 688.38l0 -261.1 655.15 -928.12c22.15,-31.65 43.91,-60.14 65.28,-85.45 21.36,-25.32 37.58,-43.53 48.66,-54.6l16.62 -14.24 0 -4.75c-36.4,4.75 -79.92,7.12 -130.55,7.12l-624.29 0 0 -356.06 1281.8 0 0 256.37 -657.52 932.86c-22.16,31.65 -43.92,60.14 -65.29,85.46 -21.36,25.31 -37.58,42.72 -48.66,52.22l-16.62 16.62 0 4.75c36.4,-4.75 79.92,-7.13 130.56,-7.13l669.38 0 0 356.06 -1324.53 0zm1412.35 0l576.81 -1697.2 436.77 0 576.8 1697.2 -427.26 0 -104.45 -356.06 -529.33 0 -102.07 356.06 -427.27 0zm626.66 -688.38l334.69 0 -94.94 -329.94 -68.84 -291.97 -4.75 0c-25.32,123.43 -48.26,220.76 -68.84,291.97l-97.32 329.94zm1134.63 688.38l0 -1697.2 415.4 0 0 655.15 170.91 0 351.31 -655.15 446.26 0 -458.13 811.81 0 4.75 484.23 880.64 -465.24 0 -358.44 -688.38 -170.91 0 0 688.38 -415.4 0zm1602.25 0l0 -1697.2 415.4 0 0 678.88 617.17 0 0 -678.88 415.39 0 0 1697.2 -415.39 0 0 -664.64 -617.17 0 0 664.64 -415.4 0zm1687.71 -213.63l218.39 -315.7c53.79,47.47 117.89,88.61 192.26,123.43 74.38,34.82 146.38,52.23 216.01,52.23 55.38,0 98.51,-11.08 129.37,-33.24 30.85,-22.15 46.29,-50.63 46.29,-85.45 0,-36.4 -18.6,-70.02 -55.78,-100.88 -37.19,-30.86 -83.48,-56.57 -138.86,-77.15 -55.39,-20.56 -115.53,-47.07 -180.4,-79.52 -64.88,-32.44 -125.02,-66.86 -180.4,-103.25 -55.39,-36.4 -101.68,-86.64 -138.86,-150.73 -37.19,-64.08 -55.78,-138.07 -55.78,-221.94 0,-155.08 57.36,-280.49 172.09,-376.23 114.72,-95.74 262.3,-143.61 442.69,-143.61 210.47,0 387.71,64.09 531.71,192.27l-175.65 339.44c-49.05,-42.72 -107.6,-78.33 -175.65,-106.82 -68.05,-28.48 -134.51,-42.72 -199.39,-42.72 -60.13,0 -105.23,11.07 -135.3,33.23 -30.07,22.15 -45.1,51.43 -45.1,87.83 0,36.39 18.6,69.63 55.78,99.69 37.19,30.07 83.48,55 138.86,74.78 55.39,19.77 115.53,45.09 180.4,75.95 64.88,30.86 125.02,64.09 180.4,99.69 55.39,35.61 101.68,85.46 138.86,149.55 37.19,64.09 55.79,138.07 55.79,221.94 0,150.33 -53.41,276.14 -160.23,377.41 -106.82,101.29 -254.38,151.92 -442.7,151.92 -113.93,0 -225.1,-20.57 -333.51,-61.71 -108.4,-41.15 -202.16,-101.28 -281.29,-180.4zm1846.74 213.63l0 -1341.15 -515.09 0 0 -356.06 1445.59 0 0 356.06 -515.1 0 0 1341.15 -415.4 0zm818.93 0l576.81 -1697.2 436.77 0 576.8 1697.2 -427.26 0 -104.45 -356.06 -529.33 0 -102.07 356.06 -427.27 0zm626.66 -688.38l334.69 0 -94.94 -329.94 -68.84 -291.97 -4.75 0c-25.32,123.43 -48.26,220.76 -68.84,291.97l-97.32 329.94zm1134.63 688.38l0 -1697.2 420.15 0 470 792.83c18.99,33.23 40.36,73.98 64.09,122.24 23.74,48.26 42.72,88.22 56.97,119.87l21.37 47.47 4.75 0c-12.67,-121.85 -18.99,-218.38 -18.99,-289.59l0 -792.83 415.39 0 0 1697.2 -417.77 0 -472.37 -790.45c-18.99,-33.23 -40.36,-73.98 -64.09,-122.24 -23.74,-48.26 -42.72,-88.23 -56.97,-119.87l-21.37 -47.47 -4.75 0c12.67,121.85 18.99,218.38 18.99,289.59l0 790.45 -415.4 0z"/>
  <path class="fil2 str0" d="M6884.62 5423.3c-627.32,1092.45 -1816.97,1829.72 -3181.29,1829.72 -2017.57,0 -3653.15,-1612.41 -3653.15,-3601.43 0,-1989.02 1635.58,-3601.43 3653.15,-3601.43 914.25,0 1750.07,331.08 2390.76,878.22"/>
 </g>
</svg>
