<svg width="41" height="41" viewBox="0 0 41 41" fill="none" xmlns="http://www.w3.org/2000/svg">
<g clip-path="url(#clip0_131_439)">
<path d="M20.5003 40.8301C22.2282 40.8301 23.7203 39.8042 24.4019 38.3301H16.5986C17.2803 39.8042 18.7723 40.8301 20.5003 40.8301Z" fill="#8108B2"/>
<path d="M19.3281 30.5174V21.0403C16.6568 20.5685 14.6406 18.5167 14.6406 16.0644C14.6406 15.4172 15.1653 14.8925 15.8124 14.8925C16.4596 14.8925 16.9843 15.4172 16.9843 16.0644C16.9843 17.2526 17.9641 18.2657 19.3281 18.6419V1.63101C18.5237 1.11586 17.5796 0.830078 16.5937 0.830078C14.1293 0.830078 12.0271 2.60952 11.5989 5.01115C8.77679 5.83646 6.82812 8.41761 6.82812 11.3769C6.82812 12.9592 7.38828 14.4714 8.4128 15.6737C7.38836 16.8761 6.82812 18.3883 6.82812 19.9706C6.82812 22.9299 8.77679 25.511 11.5989 26.3363C12.027 28.7379 14.1293 30.5174 16.5937 30.5174H19.3281Z" fill="#8108B2"/>
<path d="M14.6406 34.0332C14.6406 35.1119 15.5151 35.9863 16.5938 35.9863H24.4063C25.4849 35.9863 26.3594 35.1119 26.3594 34.0332V32.8613H14.6406V34.0332Z" fill="#8108B2"/>
<path d="M29.401 5.01115C28.9729 2.6096 26.8708 0.830078 24.4062 0.830078C23.4203 0.830078 22.4762 1.11586 21.6719 1.63101V10.3073C24.3431 10.7791 26.3593 12.8309 26.3593 15.2832C26.3593 15.9304 25.8347 16.4551 25.1875 16.4551C24.5403 16.4551 24.0156 15.9304 24.0156 15.2832C24.0156 14.095 23.0359 13.0819 21.6719 12.7056V30.5175H24.4062C26.8707 30.5175 28.9729 28.738 29.401 26.3364C32.2231 25.5111 34.1718 22.9299 34.1718 19.9707C34.1718 18.3883 33.6116 16.8762 32.5872 15.6738C33.6116 14.4715 34.1718 12.9593 34.1718 11.377C34.1719 8.41761 32.2231 5.83653 29.401 5.01115Z" fill="#8108B2"/>
<path d="M36.9856 7.47107C36.6069 7.47107 36.2353 7.28779 36.0094 6.94904C35.6504 6.41052 35.796 5.68294 36.3345 5.32396L38.6782 3.76146C39.2167 3.40232 39.9443 3.54794 40.3033 4.08646C40.6623 4.62498 40.5168 5.35255 39.9782 5.71154L37.6345 7.27404C37.4348 7.40724 37.2089 7.47107 36.9856 7.47107Z" fill="#8108B2"/>
<path d="M39.3272 27.0022C39.1039 27.0022 38.878 26.9384 38.6782 26.8052L36.3345 25.2427C35.796 24.8838 35.6504 24.1562 36.0094 23.6177C36.3685 23.0791 37.0961 22.9337 37.6345 23.2927L39.9782 24.8552C40.5168 25.2141 40.6623 25.9417 40.3033 26.4802C40.0775 26.8189 39.7059 27.0022 39.3272 27.0022Z" fill="#8108B2"/>
<path d="M4.01473 7.47098C3.79137 7.47098 3.56551 7.40723 3.36574 7.27402L1.02199 5.71152C0.483476 5.35254 0.33793 4.62496 0.696914 4.08645C1.05598 3.54785 1.78363 3.40238 2.32199 3.76145L4.66574 5.32395C5.20426 5.68293 5.3498 6.41051 4.99082 6.94902C4.76504 7.2877 4.3934 7.47098 4.01473 7.47098Z" fill="#8108B2"/>
<path d="M1.67309 27.0023C1.29441 27.0023 0.922773 26.819 0.696914 26.4803C0.33793 25.9418 0.483476 25.2142 1.02199 24.8552L3.36574 23.2927C3.90418 22.9336 4.63184 23.0792 4.99082 23.6177C5.3498 24.1562 5.20426 24.8838 4.66574 25.2428L2.32199 26.8053C2.1223 26.9385 1.89645 27.0023 1.67309 27.0023Z" fill="#8108B2"/>
<path d="M4.01562 16.4551H1.67188C1.02469 16.4551 0.5 15.9304 0.5 15.2832C0.5 14.636 1.02469 14.1113 1.67188 14.1113H4.01562C4.66281 14.1113 5.1875 14.636 5.1875 15.2832C5.1875 15.9304 4.66281 16.4551 4.01562 16.4551Z" fill="#8108B2"/>
<path d="M39.3281 16.4551H36.9844C36.3372 16.4551 35.8125 15.9304 35.8125 15.2832C35.8125 14.636 36.3372 14.1113 36.9844 14.1113H39.3281C39.9753 14.1113 40.5 14.636 40.5 15.2832C40.5 15.9304 39.9753 16.4551 39.3281 16.4551Z" fill="#8108B2"/>
</g>
<defs>
<clipPath id="clip0_131_439">
<rect width="40" height="40" fill="white" transform="translate(0.5 0.830078)"/>
</clipPath>
</defs>
</svg>
