<svg width="40" height="41" viewBox="0 0 40 41" fill="none" xmlns="http://www.w3.org/2000/svg">
<rect y="0.830078" width="40" height="40" rx="8" fill="#AC3ED8"/>
<path fill-rule="evenodd" clip-rule="evenodd" d="M18.488 12.6181C19.4724 11.6335 20.8077 11.0802 22.2 11.0801H24.9C25.0989 11.0801 25.2897 11.1591 25.4303 11.2997C25.571 11.4404 25.65 11.6312 25.65 11.8301V15.4301C25.65 15.629 25.571 15.8198 25.4303 15.9604C25.2897 16.1011 25.0989 16.1801 24.9 16.1801H22.2C22.1803 16.1801 22.1608 16.184 22.1426 16.1915C22.1244 16.199 22.1079 16.2101 22.0939 16.224C22.08 16.2379 22.069 16.2545 22.0614 16.2727C22.0539 16.2909 22.05 16.3104 22.05 16.3301V18.2801H24.9C25.014 18.28 25.1266 18.3059 25.229 18.3559C25.3315 18.4059 25.4213 18.4785 25.4915 18.5684C25.5617 18.6583 25.6104 18.7629 25.6341 18.8745C25.6578 18.986 25.6557 19.1015 25.628 19.2121L24.728 22.8121C24.6874 22.9744 24.5937 23.1185 24.4618 23.2214C24.3299 23.3243 24.1673 23.3802 24 23.3801H22.05V29.8301C22.05 30.029 21.971 30.2198 21.8303 30.3604C21.6897 30.5011 21.4989 30.5801 21.3 30.5801H17.7C17.5011 30.5801 17.3103 30.5011 17.1697 30.3604C17.029 30.2198 16.95 30.029 16.95 29.8301V23.3801H15C14.8011 23.3801 14.6103 23.3011 14.4697 23.1604C14.329 23.0198 14.25 22.829 14.25 22.6301V19.0301C14.25 18.9316 14.2694 18.8341 14.3071 18.7431C14.3448 18.6521 14.4 18.5694 14.4697 18.4997C14.5393 18.4301 14.622 18.3749 14.713 18.3372C14.804 18.2995 14.9015 18.2801 15 18.2801H16.95V16.3301C16.9502 14.9378 17.5034 13.6025 18.488 12.6181ZM22.2 12.5801C21.2054 12.5801 20.2516 12.9752 19.5483 13.6784C18.8451 14.3817 18.45 15.3355 18.45 16.3301V19.0301C18.45 19.229 18.371 19.4198 18.2303 19.5604C18.0897 19.7011 17.8989 19.7801 17.7 19.7801H15.75V21.8801H17.7C17.8989 21.8801 18.0897 21.9591 18.2303 22.0997C18.371 22.2404 18.45 22.4312 18.45 22.6301V29.0801H20.55V22.6301C20.55 22.4312 20.629 22.2404 20.7697 22.0997C20.9103 21.9591 21.1011 21.8801 21.3 21.8801H23.414L23.939 19.7801H21.3C21.1011 19.7801 20.9103 19.7011 20.7697 19.5604C20.629 19.4198 20.55 19.229 20.55 19.0301V16.3301C20.55 15.8925 20.7238 15.4728 21.0333 15.1634C21.3427 14.8539 21.7624 14.6801 22.2 14.6801H24.15V12.5801H22.2Z" fill="white"/>
</svg>
