<svg width="17" height="20" viewBox="0 0 17 20" fill="none" xmlns="http://www.w3.org/2000/svg">
<g clip-path="url(#clip0_126_208)">
<path fill-rule="evenodd" clip-rule="evenodd" d="M8.18186 9.09126C9.68814 9.09126 10.9091 7.87022 10.9091 6.36399C10.9091 4.85776 9.68814 3.63672 8.18186 3.63672C6.67564 3.63672 5.45459 4.85776 5.45459 6.36399C5.45459 7.87022 6.67564 9.09126 8.18186 9.09126ZM8.18186 7.27308C8.68394 7.27308 9.09095 6.86606 9.09095 6.36399C9.09095 5.86192 8.68394 5.4549 8.18186 5.4549C7.67979 5.4549 7.27277 5.86192 7.27277 6.36399C7.27277 6.86606 7.67979 7.27308 8.18186 7.27308Z" fill="white"/>
<path fill-rule="evenodd" clip-rule="evenodd" d="M9.47393 16.6144C11.3341 14.2348 14.5454 9.61255 14.5454 6.06061C14.5454 2.71343 11.6963 0 8.18175 0C4.66722 0 1.81812 2.71343 1.81812 6.06061C1.81812 9.61255 5.02943 14.2348 6.88957 16.6144C7.55768 17.469 8.80582 17.469 9.47393 16.6144ZM11.1113 10.9061C12.1088 9.07829 12.7272 7.36665 12.7272 6.06061C12.7272 3.80015 10.7768 1.81818 8.18175 1.81818C5.58675 1.81818 3.6363 3.80015 3.6363 6.06061C3.6363 7.36665 4.25467 9.07829 5.25224 10.9061C6.17183 12.591 7.30107 14.1746 8.18175 15.3141C9.06243 14.1746 10.1917 12.591 11.1113 10.9061Z" fill="white"/>
<path fill-rule="evenodd" clip-rule="evenodd" d="M3.13484 15.4541C3.39874 15.3368 3.691 15.2271 4.00839 15.1274C3.68685 14.6134 3.36599 14.0789 3.05376 13.5303C1.19154 14.1968 0 15.2185 0 16.3639C0 18.3723 3.66313 20.0003 8.18182 20.0003C12.7005 20.0003 16.3636 18.3723 16.3636 16.3639C16.3636 15.2185 15.1721 14.1968 13.3099 13.5303C12.9976 14.0789 12.6768 14.6134 12.3553 15.1274C12.6726 15.2271 12.9649 15.3368 13.2288 15.4541C13.8303 15.7215 14.2044 15.9926 14.4035 16.2019C14.4745 16.2764 14.5122 16.3303 14.5316 16.3639C14.5122 16.3976 14.4745 16.4515 14.4035 16.5259C14.2044 16.7353 13.8303 17.0065 13.2288 17.2737C12.0305 17.8064 10.2476 18.1821 8.18182 18.1821C6.11597 18.1821 4.33312 17.8064 3.13484 17.2737C2.53339 17.0065 2.15924 16.7353 1.96005 16.5259C1.8892 16.4515 1.85145 16.3976 1.83196 16.3639C1.85145 16.3303 1.8892 16.2764 1.96005 16.2019C2.15924 15.9926 2.53339 15.7215 3.13484 15.4541ZM14.5509 16.3215C14.5509 16.3215 14.5505 16.3246 14.5482 16.3308C14.5494 16.3246 14.5509 16.3215 14.5509 16.3215ZM1.81275 16.3215C1.81275 16.3215 1.81425 16.3246 1.81545 16.3308C1.81305 16.3246 1.81275 16.3215 1.81275 16.3215ZM1.81275 16.4063C1.81275 16.4063 1.81305 16.4033 1.81545 16.3971C1.81425 16.4032 1.81275 16.4063 1.81275 16.4063ZM14.5482 16.3971C14.5505 16.4033 14.5509 16.4063 14.5509 16.4063C14.5509 16.4063 14.5494 16.4032 14.5482 16.3971Z" fill="white"/>
</g>
<defs>
<clipPath id="clip0_126_208">
<rect width="16.3636" height="20" fill="white"/>
</clipPath>
</defs>
</svg>
