<svg width="40" height="41" viewBox="0 0 40 41" fill="none" xmlns="http://www.w3.org/2000/svg">
<rect y="0.830078" width="40" height="40" rx="8" fill="#AC3ED8"/>
<path d="M15.8 10.8301H24.2C27.4 10.8301 30 13.4301 30 16.6301V25.0301C30 26.5683 29.3889 28.0436 28.3012 29.1313C27.2135 30.219 25.7383 30.8301 24.2 30.8301H15.8C12.6 30.8301 10 28.2301 10 25.0301V16.6301C10 15.0918 10.6111 13.6166 11.6988 12.5289C12.7865 11.4411 14.2617 10.8301 15.8 10.8301ZM15.6 12.8301C14.6452 12.8301 13.7295 13.2094 13.0544 13.8845C12.3793 14.5596 12 15.4753 12 16.4301V25.2301C12 27.2201 13.61 28.8301 15.6 28.8301H24.4C25.3548 28.8301 26.2705 28.4508 26.9456 27.7757C27.6207 27.1005 28 26.1849 28 25.2301V16.4301C28 14.4401 26.39 12.8301 24.4 12.8301H15.6ZM25.25 14.3301C25.5815 14.3301 25.8995 14.4618 26.1339 14.6962C26.3683 14.9306 26.5 15.2486 26.5 15.5801C26.5 15.9116 26.3683 16.2295 26.1339 16.464C25.8995 16.6984 25.5815 16.8301 25.25 16.8301C24.9185 16.8301 24.6005 16.6984 24.3661 16.464C24.1317 16.2295 24 15.9116 24 15.5801C24 15.2486 24.1317 14.9306 24.3661 14.6962C24.6005 14.4618 24.9185 14.3301 25.25 14.3301ZM20 15.8301C21.3261 15.8301 22.5979 16.3569 23.5355 17.2945C24.4732 18.2322 25 19.504 25 20.8301C25 22.1562 24.4732 23.4279 23.5355 24.3656C22.5979 25.3033 21.3261 25.8301 20 25.8301C18.6739 25.8301 17.4021 25.3033 16.4645 24.3656C15.5268 23.4279 15 22.1562 15 20.8301C15 19.504 15.5268 18.2322 16.4645 17.2945C17.4021 16.3569 18.6739 15.8301 20 15.8301ZM20 17.8301C19.2044 17.8301 18.4413 18.1461 17.8787 18.7088C17.3161 19.2714 17 20.0344 17 20.8301C17 21.6257 17.3161 22.3888 17.8787 22.9514C18.4413 23.514 19.2044 23.8301 20 23.8301C20.7956 23.8301 21.5587 23.514 22.1213 22.9514C22.6839 22.3888 23 21.6257 23 20.8301C23 20.0344 22.6839 19.2714 22.1213 18.7088C21.5587 18.1461 20.7956 17.8301 20 17.8301Z" fill="white"/>
</svg>
