<svg width="36" height="32" viewBox="0 0 36 32" fill="none" xmlns="http://www.w3.org/2000/svg">
<path fill-rule="evenodd" clip-rule="evenodd" d="M33.7982 28.6973H2.19823C1.53157 28.6973 0.931565 29.2306 0.931565 29.9639C0.931565 30.2306 0.864898 30.8973 1.0649 31.0973C1.13157 31.1639 1.19823 31.1639 1.33157 31.1639H34.6649C35.1982 31.1639 35.0649 30.3639 35.0649 30.0306V29.9639C35.0649 29.2306 34.4649 28.6973 33.7982 28.6973Z" fill="#8108B2"/>
<path fill-rule="evenodd" clip-rule="evenodd" d="M17.665 28.0316V26.8983C17.665 25.565 16.5317 24.4316 15.1983 24.4316H2.865C2.79833 24.4316 2.73166 24.4983 2.665 24.4983C2.465 24.6983 2.53166 25.4316 2.53166 25.6983V25.8316V25.8983H13.3317C13.7983 25.8983 13.7317 26.565 13.3317 26.565H2.53166V28.0316H17.665Z" fill="#8108B2"/>
<path fill-rule="evenodd" clip-rule="evenodd" d="M18.3315 26.8983V28.0316H33.4649V26.565H22.6649C22.1982 26.565 22.1982 25.8983 22.6649 25.8983H33.4649V25.8316C33.4649 25.4983 33.4649 25.2316 33.4649 24.965C33.4649 24.8316 33.4649 24.6316 33.3315 24.565C33.2649 24.4316 33.0649 24.4316 32.9315 24.4316H20.7982C19.4649 24.4316 18.3315 25.565 18.3315 26.8983Z" fill="#8108B2"/>
<path fill-rule="evenodd" clip-rule="evenodd" d="M20.7984 23.7643H29.265V21.9643C29.265 21.4977 29.9317 21.4977 29.9317 21.9643V23.7643H32.5317V21.631C32.5317 19.6977 30.9984 18.0977 29.065 18.0977H27.5984L24.265 20.7643C24.1317 20.831 23.9317 20.831 23.7984 20.7643L20.5984 18.0977H19.1317C17.1984 18.0977 15.665 19.6977 15.665 21.631V23.7643C16.665 23.9643 17.465 24.4977 17.9317 25.3643L17.9984 25.431L18.065 25.3643C18.1317 25.231 18.1317 25.1643 18.1984 25.0977L18.265 25.031V21.9643C18.265 21.4977 18.9317 21.4977 18.9317 21.9643V24.3643L19.065 24.2977C19.5317 23.9643 20.1317 23.7643 20.7984 23.7643Z" fill="#8108B2"/>
<path fill-rule="evenodd" clip-rule="evenodd" d="M21.0649 17.6307L24.0649 20.0307L27.1316 17.6307L26.6649 16.2974H26.5983C24.9983 16.8307 23.1316 16.7641 21.5316 16.1641H21.4649L21.0649 17.6307Z" fill="#8108B2"/>
<path fill-rule="evenodd" clip-rule="evenodd" d="M21.1981 15.2977C23.2648 16.2977 26.4648 16.2977 28.1981 14.5644C29.2648 13.5644 29.5315 12.2311 29.3315 10.8977V10.8311C29.1315 10.3644 28.9315 9.83108 28.7315 9.29775C28.6648 8.89775 28.5315 8.56442 28.3981 8.16442C28.2648 7.96442 28.1981 7.69775 28.0648 7.49775C27.5315 6.63108 27.3315 6.56442 26.4648 7.03108C25.7981 7.36442 25.1981 7.63108 24.3981 7.69775C23.1981 7.83108 21.8648 7.49775 20.7315 7.03108C20.3981 6.89775 20.0648 6.83108 19.7315 6.96442C18.9981 7.49775 18.9315 9.69775 18.8648 10.5644C18.7981 12.8311 18.9981 14.1644 21.1981 15.2977Z" fill="#8108B2"/>
<path fill-rule="evenodd" clip-rule="evenodd" d="M24.265 7.03073C24.9983 6.96406 25.5317 6.76406 26.1317 6.43073C26.465 6.23073 26.865 6.03073 27.265 6.03073C27.865 6.03073 28.3317 6.63073 28.665 7.09739C28.7983 7.36406 28.9317 7.76406 28.9983 7.96406C29.265 8.56406 29.465 9.16406 29.665 9.76406L29.7317 9.96406L29.7983 9.76406C31.065 6.56406 31.1983 3.16406 27.7317 1.36406C26.1317 0.56406 23.7983 0.16406 22.065 0.830726C21.065 1.16406 20.7317 1.96406 19.5317 1.49739L19.3317 1.43073L19.3983 1.56406C19.5317 1.76406 19.5983 1.83073 19.665 2.03073C19.7317 2.09739 19.865 2.16406 19.865 2.29739C19.865 2.36406 19.865 2.43073 19.7983 2.49739C19.5983 2.96406 18.1983 2.43073 17.865 2.23073L17.7317 2.16406V2.29739C17.7317 2.83073 17.9317 3.29739 18.265 3.69739C18.3317 3.89739 18.665 4.29739 18.665 4.49739C18.665 4.56406 18.5983 4.63073 18.5317 4.69739C17.1983 5.76406 17.5317 8.09739 18.1317 9.49739L18.1983 9.76406L18.265 9.49739C18.3983 7.89739 18.7983 5.49739 20.9983 6.36406C21.9983 6.76406 23.1983 7.09739 24.265 7.03073Z" fill="#8108B2"/>
<path fill-rule="evenodd" clip-rule="evenodd" d="M15.1983 7.43045C14.9316 7.03045 14.9316 6.69712 14.9316 6.23045C14.9316 6.03045 14.7316 5.83045 14.5316 5.89712C14.1983 6.03045 14.065 5.76379 14.065 5.49712C14.065 5.23045 13.7316 5.09712 13.5316 5.23045C13.3316 5.36379 12.9983 5.23045 12.9983 4.96379C12.9983 4.69712 12.665 4.56379 12.465 4.69712C12.265 4.89712 11.9316 4.83045 11.865 4.56379C11.7983 4.29712 11.465 4.16379 11.265 4.43045C11.1316 4.63045 10.7983 4.56379 10.665 4.29712C10.5983 4.09712 10.1983 4.03045 10.1316 4.23045C9.99832 4.49712 9.59832 4.49712 9.46498 4.23045C9.33165 4.03045 8.99832 4.03045 8.93165 4.29712C8.79832 4.56379 8.46498 4.63045 8.33165 4.43045C8.13165 4.16379 7.79832 4.29712 7.73165 4.56379C7.66498 4.83045 7.33165 4.89712 7.13165 4.69712C6.93165 4.56379 6.59832 4.69712 6.59832 4.96379C6.59832 5.23045 6.26498 5.36379 6.06498 5.23045C5.79832 5.09712 5.53165 5.29712 5.53165 5.56379C5.59832 5.76379 5.33165 6.03045 5.06498 5.89712H4.99832C4.86498 5.89712 4.79832 5.89712 4.73165 5.96379C4.59832 6.09712 4.66498 6.43045 4.66498 6.56379C4.66498 6.89712 4.59832 7.09712 4.39832 7.36379C3.66498 8.49712 3.59832 10.1638 3.86498 11.4305L3.99832 11.9638V11.4305C4.06498 10.0305 4.39832 8.76379 5.93165 8.49712C6.66498 8.36379 8.39832 8.49712 8.39832 9.49712C8.39832 9.76379 8.73165 9.96379 8.93165 9.76379C9.13165 9.63045 9.39832 9.69712 9.46498 9.89712C9.59832 10.1638 9.99832 10.1638 10.1316 9.89712C10.1983 9.69712 10.3316 9.63045 10.5316 9.69712C10.5983 9.69712 10.7983 9.83045 10.865 9.83045C10.9983 9.83045 11.065 9.83045 11.1316 9.76379C11.265 9.56379 11.1983 9.23045 11.465 8.96379C11.865 8.56379 12.7983 8.43045 13.3316 8.49712C14.265 8.56379 14.9983 8.96379 15.3316 9.83045C15.5316 10.2971 15.5983 10.8971 15.5983 11.2971L15.665 11.3638H15.7316H15.7983C15.9983 10.0971 15.9316 8.49712 15.1983 7.43045Z" fill="#8108B2"/>
<path fill-rule="evenodd" clip-rule="evenodd" d="M14.7315 10.0974C14.3981 9.43073 13.7981 9.16406 13.1315 9.16406C12.9315 9.16406 11.9981 9.2974 11.9315 9.4974C11.9315 10.0974 11.4648 10.4974 10.8648 10.4974C10.7981 10.4974 10.6648 10.4974 10.5981 10.4974H10.5315C10.1315 10.8974 9.46481 10.8974 9.06481 10.4974H8.99814C8.93148 10.4974 8.79814 10.4974 8.73148 10.4974C8.13148 10.4974 7.66481 10.0307 7.66481 9.4974C7.59814 9.23073 6.66481 9.16406 6.53148 9.16406C5.79814 9.16406 5.19814 9.43073 4.93148 10.0974C4.59814 10.8307 4.66481 12.8307 4.59814 13.6974V13.7641C4.93148 15.1641 5.59814 16.4974 6.79814 17.4307C7.66481 18.0307 8.73148 18.4307 9.79814 18.4307C10.8648 18.4307 11.9981 18.0974 12.7981 17.4307C13.9981 16.4974 14.6648 15.1641 14.9981 13.7641C14.9981 13.4974 14.9981 13.2307 14.9981 12.9641C14.9981 12.2974 14.9981 10.7641 14.7315 10.0974Z" fill="#8108B2"/>
<path fill-rule="evenodd" clip-rule="evenodd" d="M11.4649 18.8965C10.3983 19.2298 9.19827 19.2298 8.13161 18.8965H8.06494V20.5632C8.26494 21.4298 8.99827 21.8298 9.79827 21.8298C10.7983 21.8298 11.5316 21.2298 11.5316 20.2298V18.8965H11.4649Z" fill="#8108B2"/>
<path fill-rule="evenodd" clip-rule="evenodd" d="M12.1318 20.9632C11.5318 23.0965 8.1318 23.0965 7.46514 20.9632V20.8965H4.99847C3.99847 20.8965 3.26514 21.6965 3.26514 22.6298V23.7632H14.9318V23.6965C14.9318 23.2298 14.9318 22.8298 14.9318 22.3632C14.9318 21.9632 14.9318 21.4298 14.9985 20.9632V20.8965H12.1985L12.1318 20.9632Z" fill="#8108B2"/>
</svg>
