<svg width="41" height="40" viewBox="0 0 41 40" fill="none" xmlns="http://www.w3.org/2000/svg">
<g clip-path="url(#clip0_130_391)">
<path d="M17.1667 40.0003C8 40.0003 0.5 32.5003 0.5 23.3337C0.5 14.167 8 6.66699 17.1667 6.66699C26.3333 6.66699 33.8333 14.167 33.8333 23.3337C33.8333 32.5003 26.3333 40.0003 17.1667 40.0003ZM17.1667 8.33366C8.83333 8.33366 2.16667 15.0003 2.16667 23.3337C2.16667 31.667 8.83333 38.3337 17.1667 38.3337C25.5 38.3337 32.1667 31.667 32.1667 23.3337C32.1667 15.0003 25.5 8.33366 17.1667 8.33366Z" fill="#8108B2"/>
<path d="M17.1668 34.1667C11.1668 34.1667 6.3335 29.3333 6.3335 23.3333C6.3335 17.3333 11.1668 12.5 17.1668 12.5C23.1668 12.5 28.0002 17.3333 28.0002 23.3333C28.0002 29.3333 23.1668 34.1667 17.1668 34.1667ZM17.1668 14.1667C12.1668 14.1667 8.00016 18.3333 8.00016 23.3333C8.00016 28.3333 12.1668 32.5 17.1668 32.5C22.1668 32.5 26.3335 28.3333 26.3335 23.3333C26.3335 18.3333 22.1668 14.1667 17.1668 14.1667Z" fill="#8108B2"/>
<path d="M17.1665 28.333C14.3332 28.333 12.1665 26.1663 12.1665 23.333C12.1665 20.4997 14.3332 18.333 17.1665 18.333C19.9998 18.333 22.1665 20.4997 22.1665 23.333C22.1665 26.1663 19.9998 28.333 17.1665 28.333ZM17.1665 19.9997C15.3332 19.9997 13.8332 21.4997 13.8332 23.333C13.8332 25.1663 15.3332 26.6663 17.1665 26.6663C18.9998 26.6663 20.4998 25.1663 20.4998 23.333C20.4998 21.4997 18.9998 19.9997 17.1665 19.9997Z" fill="#8108B2"/>
<path d="M17.1667 24.1663C17 24.1663 16.6667 24.1663 16.5 23.9997C16.1667 23.6663 16.1667 23.1663 16.5 22.833L29 10.333C29.3333 9.99967 29.8333 9.99967 30.1667 10.333C30.5 10.6663 30.5 11.1663 30.1667 11.4997L17.6667 23.9997C17.6667 24.1663 17.3333 24.1663 17.1667 24.1663Z" fill="#8108B2"/>
<path d="M33.8335 11.6667H29.6668C29.1668 11.6667 28.8335 11.3333 28.8335 10.8333V6.66667C28.8335 6.5 29.0002 6.16667 29.0002 6L34.8335 0.166667C35.1668 0 35.5002 0 35.8335 0C36.1668 0.166667 36.3335 0.5 36.3335 0.833333V4.16667H39.6668C40.0002 4.16667 40.3335 4.33333 40.5002 4.66667C40.5002 5 40.5002 5.33333 40.3335 5.66667L34.5002 11.5C34.3335 11.5 34.0002 11.6667 33.8335 11.6667ZM30.5002 10H33.5002L37.6668 5.83333H35.5002C35.0002 5.83333 34.6668 5.5 34.6668 5V2.83333L30.5002 7V10Z" fill="#8108B2"/>
</g>
<defs>
<clipPath id="clip0_130_391">
<rect width="40" height="40" fill="white" transform="translate(0.5)"/>
</clipPath>
</defs>
</svg>
