<svg width="40" height="41" viewBox="0 0 40 41" fill="none" xmlns="http://www.w3.org/2000/svg">
<g clip-path="url(#clip0_229_154)">
<path d="M0 20.8301C0 15.5257 2.10714 10.4387 5.85786 6.68794C9.60859 2.93722 14.6957 0.830078 20 0.830078C25.3043 0.830078 30.3914 2.93722 34.1421 6.68794C37.8929 10.4387 40 15.5257 40 20.8301C40 26.1344 37.8929 31.2215 34.1421 34.9722C30.3914 38.7229 25.3043 40.8301 20 40.8301C14.6957 40.8301 9.60859 38.7229 5.85786 34.9722C2.10714 31.2215 0 26.1344 0 20.8301ZM20 4.58008C15.6902 4.58008 11.557 6.29213 8.50951 9.33959C5.46205 12.3871 3.75 16.5203 3.75 20.8301C3.75 25.1398 5.46205 29.2731 8.50951 32.3206C11.557 35.368 15.6902 37.0801 20 37.0801C24.3098 37.0801 28.443 35.368 31.4905 32.3206C34.538 29.2731 36.25 25.1398 36.25 20.8301C36.25 16.5203 34.538 12.3871 31.4905 9.33959C28.443 6.29213 24.3098 4.58008 20 4.58008ZM16.25 20.2051C16.25 19.7078 16.4475 19.2309 16.7992 18.8793C17.1508 18.5276 17.6277 18.3301 18.125 18.3301H20.625C21.1223 18.3301 21.5992 18.5276 21.9508 18.8793C22.3025 19.2309 22.5 19.7078 22.5 20.2051V27.0801H23.125C23.6223 27.0801 24.0992 27.2776 24.4508 27.6293C24.8025 27.9809 25 28.4578 25 28.9551C25 29.4524 24.8025 29.9293 24.4508 30.2809C24.0992 30.6325 23.6223 30.8301 23.125 30.8301H18.125C17.6277 30.8301 17.1508 30.6325 16.7992 30.2809C16.4475 29.9293 16.25 29.4524 16.25 28.9551C16.25 28.4578 16.4475 27.9809 16.7992 27.6293C17.1508 27.2776 17.6277 27.0801 18.125 27.0801H18.75V22.0801H18.125C17.6277 22.0801 17.1508 21.8825 16.7992 21.5309C16.4475 21.1793 16.25 20.7024 16.25 20.2051ZM20 15.8301C19.337 15.8301 18.7011 15.5667 18.2322 15.0978C17.7634 14.629 17.5 13.9931 17.5 13.3301C17.5 12.667 17.7634 12.0312 18.2322 11.5623C18.7011 11.0935 19.337 10.8301 20 10.8301C20.663 10.8301 21.2989 11.0935 21.7678 11.5623C22.2366 12.0312 22.5 12.667 22.5 13.3301C22.5 13.9931 22.2366 14.629 21.7678 15.0978C21.2989 15.5667 20.663 15.8301 20 15.8301Z" fill="white"/>
</g>
<defs>
<clipPath id="clip0_229_154">
<rect width="40" height="40" fill="white" transform="translate(0 0.830078)"/>
</clipPath>
</defs>
</svg>
