<svg width="41" height="40" viewBox="0 0 41 40" fill="none" xmlns="http://www.w3.org/2000/svg">
<path fill-rule="evenodd" clip-rule="evenodd" d="M8.36016 0.587109C4.13852 0.906328 0.8125 4.43281 0.8125 8.73617C0.8125 13.2498 4.47148 16.9088 8.98516 16.9088C10.2516 16.9088 11.4507 16.6208 12.5205 16.1066L8.46703 9.08578C8.39953 8.98602 8.36016 8.8657 8.36016 8.73617V0.587109ZM24.6809 15.563C29.1252 15.563 32.728 19.1659 32.728 23.6102C32.728 25.324 32.192 26.9123 31.2788 28.2176L33.7901 30.679L33.8877 30.5784C34.1678 30.2898 34.6334 30.2827 34.9221 30.563L39.3413 34.8512C39.63 35.1314 39.6371 35.5968 39.3568 35.8856L37.7613 37.5299C37.4811 37.8187 37.0156 37.8255 36.7269 37.5454L32.3077 33.2573C32.019 32.9771 32.012 32.5115 32.2921 32.2228L32.3764 32.1359L29.9145 29.7227C28.5076 30.9287 26.6794 31.6574 24.6809 31.6574C20.2366 31.6574 16.6337 28.0545 16.6337 23.6102C16.6337 19.1659 20.2366 15.563 24.6809 15.563ZM24.6809 17.8318C21.4895 17.8318 18.9025 20.4188 18.9025 23.6102C18.9025 26.8014 21.4895 29.3885 24.6809 29.3885C27.8721 29.3885 30.4592 26.8015 30.4592 23.6102C30.4592 20.4189 27.8722 17.8318 24.6809 17.8318ZM8.81469 21.3953H11.4099C11.8402 21.3953 12.1912 21.7463 12.1912 22.1766V38.5323C12.1912 38.9627 11.8402 39.3136 11.4099 39.3136C10.5448 39.3136 9.67977 39.3136 8.81469 39.3136C8.38438 39.3136 8.03344 38.9627 8.03344 38.5323C8.03344 33.0804 8.03344 27.6284 8.03344 22.1766C8.03344 21.7463 8.38438 21.3953 8.81469 21.3953ZM1.59391 25.0441H4.18914C4.61945 25.0441 4.97039 25.395 4.97039 25.8252V38.5323C4.97039 38.9627 4.61945 39.3136 4.18914 39.3136C3.32406 39.3136 2.45898 39.3136 1.59391 39.3136C1.16359 39.3136 0.812656 38.9627 0.812656 38.5323C0.812656 34.2966 0.812656 30.0609 0.812656 25.8252C0.812656 25.395 1.16359 25.0441 1.59391 25.0441ZM21.9076 13.2578H24.0154C24.4998 13.2578 24.8948 13.6529 24.8948 14.1373V14.3157C24.8237 14.3141 24.7524 14.313 24.6809 14.313C23.3841 14.313 22.1495 14.5788 21.0281 15.0585V14.1373C21.0281 13.6529 21.4232 13.2578 21.9076 13.2578ZM29.8388 15.8746C30.3829 16.2381 30.8862 16.6576 31.3411 17.1246H33.5172C33.8623 17.1246 34.1422 16.8448 34.1422 16.4996C34.1422 16.1545 33.8623 15.8746 33.5172 15.8746H29.8388ZM27.4716 14.5078C27.1265 14.5078 26.8466 14.228 26.8466 13.8828C26.8466 13.5377 27.1265 13.2578 27.4716 13.2578H39.5627C39.9078 13.2578 40.1877 13.5377 40.1877 13.8828C40.1877 14.228 39.9078 14.5078 39.5627 14.5078H27.4716ZM27.2827 32.5377C26.457 32.778 25.5841 32.9073 24.6809 32.9073C24.1507 32.9073 23.631 32.8623 23.125 32.777V38.5323C23.125 38.9627 23.4759 39.3136 23.9062 39.3136H26.5015C26.9318 39.3136 27.2827 38.9627 27.2827 38.5323V32.5377ZM19.737 31.4843C18.1244 30.4697 16.8454 28.9735 16.1016 27.1977C15.7979 27.3048 15.5791 27.595 15.5791 27.9346V38.5323C15.5791 38.9627 15.9301 39.3136 16.3604 39.3136H18.9556C19.3859 39.3136 19.7369 38.9627 19.7369 38.5323L19.737 31.4843ZM21.9076 6.80273H24.0154C24.4998 6.80273 24.8948 7.19781 24.8948 7.68219V9.79C24.8948 10.2744 24.4998 10.6695 24.0154 10.6695H21.9076C21.4232 10.6695 21.0281 10.2744 21.0281 9.79V7.68219C21.0281 7.19781 21.4232 6.80273 21.9076 6.80273ZM27.4716 10.6695C27.1265 10.6695 26.8466 10.3897 26.8466 10.0445C26.8466 9.69938 27.1265 9.41953 27.4716 9.41953H33.5172C33.8623 9.41953 34.1422 9.69938 34.1422 10.0445C34.1422 10.3897 33.8623 10.6695 33.5172 10.6695H27.4716ZM27.4716 8.05273C27.1265 8.05273 26.8466 7.77289 26.8466 7.42773C26.8466 7.08258 27.1265 6.80273 27.4716 6.80273H39.5627C39.9078 6.80273 40.1877 7.08258 40.1877 7.42773C40.1877 7.77289 39.9078 8.05273 39.5627 8.05273H27.4716ZM21.9076 0.347656H24.0154C24.4998 0.347656 24.8948 0.742734 24.8948 1.22711V3.33492C24.8948 3.8193 24.4998 4.21438 24.0154 4.21438H21.9076C21.4232 4.21438 21.0281 3.8193 21.0281 3.33492V1.22711C21.0281 0.742734 21.4232 0.347656 21.9076 0.347656ZM27.4716 4.21438C27.1265 4.21438 26.8466 3.93453 26.8466 3.58938C26.8466 3.24422 27.1265 2.96438 27.4716 2.96438H33.5172C33.8623 2.96438 34.1422 3.24422 34.1422 3.58938C34.1422 3.93453 33.8623 4.21438 33.5172 4.21438H27.4716ZM27.4716 1.59766C27.1265 1.59766 26.8466 1.31781 26.8466 0.972656C26.8466 0.6275 27.1265 0.347656 27.4716 0.347656H39.5627C39.9078 0.347656 40.1877 0.6275 40.1877 0.972656C40.1877 1.31781 39.9078 1.59766 39.5627 1.59766H27.4716ZM13.5997 15.4817L10.0659 9.36109H17.1341C16.942 11.903 15.5868 14.1198 13.5997 15.4817ZM17.1342 8.11117H9.61016V0.587109C13.6255 0.890781 16.8305 4.09586 17.1342 8.11117Z" fill="#8108B2"/>
</svg>
