<svg width="40" height="41" viewBox="0 0 40 41" fill="none" xmlns="http://www.w3.org/2000/svg">
<path d="M10.9448 34.3217C10.9448 37.0041 9.15075 39.1866 6.94427 39.1866C4.73865 39.1866 2.94372 37.0041 2.94372 34.3217C2.94372 31.6385 4.73857 29.4559 6.94427 29.4559C9.15075 29.4559 10.9448 31.6384 10.9448 34.3217ZM6.1681 28.368C6.1706 25.4067 7.00451 22.6113 8.47771 20.574C7.63966 20.1013 6.87419 19.5215 6.20357 18.8534C3.44201 21.1497 0.636693 24.6305 0.667239 27.2272C0.679583 28.2698 1.12919 29.1103 2.0406 29.7966C2.3549 30.0333 2.73841 30.1719 3.1838 30.2081C3.95755 29.2431 4.99935 28.5759 6.1681 28.368ZM20.264 28.3168C20.2524 25.5337 19.454 22.9313 18.0575 21.092C16.7526 21.6479 15.3099 21.9572 13.793 21.9572C12.2769 21.9572 10.8351 21.6479 9.53107 21.0927C8.1338 22.9321 7.33529 25.5337 7.3238 28.3168C9.99052 28.5445 12.1005 31.1509 12.1005 34.3216C12.1005 35.4402 11.8374 36.4894 11.3804 37.3876C12.1476 37.8561 12.9567 38.0928 13.7931 38.0928C14.6286 38.0928 15.4379 37.8561 16.2058 37.3876C15.7488 36.4852 15.4881 35.4352 15.4881 34.3216C15.4881 31.151 17.5981 28.5445 20.264 28.3168ZM23.5353 7.86055C24.7347 7.22625 25.5091 5.96836 25.5091 4.58016C25.5091 2.53367 23.8437 0.869141 21.7965 0.869141C20.4445 0.869141 19.232 1.58344 18.5779 2.72836C20.796 3.81797 22.5645 5.63922 23.5353 7.86055ZM4.05326 7.86055C5.02411 5.63922 6.79177 3.81711 9.0106 2.72828C8.3556 1.58344 7.14396 0.869141 5.79201 0.869141C3.74474 0.869141 2.07857 2.53367 2.07857 4.58016C2.07857 5.9675 2.8531 7.22625 4.05326 7.86055ZM13.793 2.77953C18.9813 2.77953 23.2021 6.82211 23.2021 11.791C23.2021 16.7599 18.9813 20.8025 13.793 20.8025C8.60638 20.8025 4.38646 16.7599 4.38646 11.791C4.38646 6.82211 8.60638 2.77953 13.793 2.77953ZM17.7721 10.9653C17.7721 11.5394 18.239 12.0062 18.813 12.0062C19.3879 12.0062 19.8556 11.5394 19.8556 10.9653C19.8556 10.3904 19.3879 9.92273 18.813 9.92273C18.239 9.92273 17.7721 10.3904 17.7721 10.9653ZM13.2156 15.7643V17.2779C11.9997 17.1789 10.8565 16.7656 9.88076 16.0678C9.62091 15.8822 9.26044 15.9424 9.0749 16.2014C8.88927 16.4613 8.94951 16.8217 9.20849 17.0073C10.5357 17.9559 12.1211 18.4573 13.793 18.4573C15.4666 18.4573 17.0529 17.9559 18.3792 17.0073C18.639 16.8216 18.6992 16.4612 18.5136 16.2014C18.328 15.9424 17.9676 15.8822 17.7078 16.0678C16.732 16.7656 15.5871 17.1788 14.3704 17.2779V15.7643L16.2494 13.8853C16.6297 13.5051 16.7393 12.9598 16.5332 12.46C16.3303 11.9717 15.8568 11.6558 15.3265 11.6558H12.2613C11.7318 11.6558 11.2575 11.9717 11.0537 12.4616C10.85 12.9573 10.9572 13.5018 11.3367 13.8853L13.2156 15.7643ZM7.73286 10.9653C7.73286 11.5394 8.20052 12.0062 8.77544 12.0062C9.34872 12.0062 9.8156 11.5394 9.8156 10.9653C9.8156 10.3904 9.34872 9.92273 8.77544 9.92273C8.2006 9.92273 7.73286 10.3904 7.73286 10.9653ZM15.4329 13.0687C15.4642 13.0373 15.4799 13.0027 15.4799 12.9655C15.4799 12.9449 15.475 12.9234 15.4659 12.9012C15.4411 12.8418 15.3941 12.8105 15.3265 12.8105H12.2614C12.1946 12.8105 12.1476 12.8418 12.122 12.9029C12.0965 12.9648 12.1072 13.0216 12.1558 13.0703L13.7932 14.7084L15.4329 13.0687ZM34.3804 30.8862H25.6288V22.1354H34.3804V30.8862ZM31.8777 28.2591L30.0057 25.0173L28.1325 28.2591H31.8777ZM21.385 18.8534C20.7136 19.5215 19.9481 20.1013 19.1101 20.5732C20.5833 22.6105 21.4179 25.406 21.4204 28.368C22.5761 28.5685 23.6236 29.2152 24.4122 30.2066C24.4336 30.2322 24.4542 30.2586 24.474 30.285V21.9631C23.5865 20.8717 22.5076 19.7854 21.385 18.8534ZM39.3328 32.0418V40.791H30.5828V32.0418H39.3328ZM36.5902 36.416C36.5902 35.5161 35.8577 34.7845 34.9579 34.7845C34.0579 34.7845 33.3263 35.5161 33.3263 36.416C33.3263 37.3167 34.0579 38.0484 34.9579 38.0484C35.8577 38.0484 36.5902 37.3167 36.5902 36.416ZM20.6764 32.0418H29.428V40.791H20.6764V32.0418ZM23.5222 37.9477H26.5823V34.8851H23.5222V37.9477ZM20.6434 29.4559C18.4378 29.4559 16.6429 31.6385 16.6429 34.3217C16.6429 36.5166 17.8414 38.4006 19.5216 38.992V31.4645C19.5216 31.1452 19.7798 30.8862 20.099 30.8862H23.476C22.7336 29.9773 21.7231 29.4559 20.6434 29.4559Z" fill="#8108B2"/>
</svg>
